# Blender v3.0.0 OBJ File: 'fnaf 1 map without ceiling.blend'
# www.blender.org
o Cube.223_Cube.313
v 24.995453 -5.332647 14.315397
v 24.995453 -3.524401 14.315397
v 24.995453 -5.332647 13.687746
v 24.995453 -3.524401 13.687746
v 25.906673 -5.332647 14.315397
v 25.906673 -3.524401 14.315397
v 25.906673 -5.332647 13.687746
v 25.906673 -3.524401 13.687746
v 29.785391 -5.332646 14.315397
v 29.785391 -3.524401 14.315397
v 29.785391 -5.332646 13.687746
v 29.785391 -3.524401 13.687746
v 30.696611 -5.332646 14.315397
v 30.696611 -3.524401 14.315397
v 30.696611 -5.332646 13.687746
v 30.696611 -3.524401 13.687746
v 29.785391 -5.332647 29.631044
v 29.785391 -3.524401 29.631044
v 29.785391 -5.332647 29.003393
v 29.785391 -3.524401 29.003393
v 30.696611 -5.332647 29.631044
v 30.696611 -3.524401 29.631044
v 30.696611 -5.332647 29.003393
v 30.696611 -3.524401 29.003393
v 24.995453 -5.332647 29.631044
v 24.995453 -3.524401 29.631044
v 24.995453 -5.332647 29.003393
v 24.995453 -3.524401 29.003393
v 25.906673 -5.332647 29.631044
v 25.906673 -3.524401 29.631044
v 25.906673 -5.332647 29.003393
v 25.906673 -3.524401 29.003393
v 24.229122 -3.661506 30.331692
v 24.229122 -2.118199 30.331692
v 24.229122 -3.661506 13.147304
v 24.229122 -2.118199 13.147304
v 31.659636 -3.661506 30.331692
v 31.659636 -2.118199 30.331692
v 31.659636 -3.661506 13.147304
v 31.659636 -2.118199 13.147304
v 24.229122 -3.661506 16.802080
v 24.229122 -2.118199 16.802080
v 31.659636 -3.661506 16.802080
v 31.659636 -2.118199 16.802080
v 24.229122 -3.661506 26.978287
v 31.659636 -2.118199 26.978287
v 24.229122 -2.118199 26.978287
v 31.659636 -3.661506 26.978287
v 24.229122 -3.412395 30.331692
v 24.229122 -3.412394 13.147304
v 31.659636 -3.412394 13.147304
v 31.659636 -3.412395 30.331692
v 31.659636 -3.412394 16.802080
v 24.229122 -3.412394 16.802080
v 24.229122 -3.412395 26.978287
v 31.659636 -3.412395 26.978287
v 24.229122 -2.584109 30.331692
v 24.229122 -2.584109 13.147304
v 31.659636 -2.584109 13.147304
v 31.659636 -2.584109 30.331692
v 31.659636 -2.584109 16.802080
v 24.229122 -2.584109 16.802080
v 24.229122 -2.584109 26.978287
v 31.659636 -2.584109 26.978287
v 24.119560 -3.471252 30.585075
v 24.119560 -1.882433 30.585075
v 24.119560 -3.471252 12.893921
v 24.119560 -1.882433 12.893921
v 31.769197 -3.471252 30.585075
v 31.769197 -1.882433 30.585075
v 31.769197 -3.471252 12.893921
v 31.769197 -1.882433 12.893921
v 24.119560 -3.471252 16.656477
v 24.119560 -1.882433 16.656477
v 31.769197 -3.471252 16.656477
v 31.769197 -1.882433 16.656477
v 24.119560 -3.471252 27.132778
v 31.769197 -1.882433 27.132778
v 24.119560 -1.882433 27.132778
v 31.769197 -3.471252 27.132778
v 24.119560 -3.214794 30.585075
v 24.119560 -3.214794 12.893921
v 31.769197 -3.214794 12.893921
v 31.769197 -3.214794 30.585075
v 31.769197 -3.214794 16.656477
v 24.119560 -3.214794 16.656477
v 24.119560 -3.214794 27.132778
v 31.769197 -3.214794 27.132778
v 24.119560 -2.362083 30.585075
v 24.119560 -2.362083 12.893921
v 31.769197 -2.362083 12.893921
v 31.769197 -2.362083 30.585075
v 31.769197 -2.362083 16.656477
v 24.119560 -2.362083 16.656477
v 24.119560 -2.362083 27.132778
v 31.769197 -2.362083 27.132778
vn -1.0000 0.0000 0.0000
vn 0.0000 0.0000 -1.0000
vn 1.0000 0.0000 0.0000
vn 0.0000 0.0000 1.0000
vn 0.0000 -1.0000 0.0000
vn 0.0000 1.0000 0.0000
s off
f 2//1 3//1 1//1
f 4//2 7//2 3//2
f 8//3 5//3 7//3
f 6//4 1//4 5//4
f 7//5 1//5 3//5
f 4//6 6//6 8//6
f 10//1 11//1 9//1
f 12//2 15//2 11//2
f 16//3 13//3 15//3
f 14//4 9//4 13//4
f 15//5 9//5 11//5
f 12//6 14//6 16//6
f 18//1 19//1 17//1
f 20//2 23//2 19//2
f 24//3 21//3 23//3
f 22//4 17//4 21//4
f 23//5 17//5 19//5
f 20//6 22//6 24//6
f 26//1 27//1 25//1
f 28//2 31//2 27//2
f 32//3 29//3 31//3
f 30//4 25//4 29//4
f 31//5 25//5 27//5
f 28//6 30//6 32//6
f 42//1 58//1 62//1
f 36//2 59//2 58//2
f 64//3 38//3 60//3
f 38//4 57//4 60//4
f 48//5 33//5 45//5
f 47//6 38//6 46//6
f 36//6 44//6 40//6
f 39//5 41//5 35//5
f 40//3 61//3 59//3
f 47//1 62//1 63//1
f 34//1 63//1 57//1
f 42//6 46//6 44//6
f 43//5 45//5 41//5
f 61//3 46//3 64//3
f 53//3 48//3 43//3
f 33//1 55//1 45//1
f 45//1 54//1 41//1
f 51//3 43//3 39//3
f 52//4 33//4 37//4
f 56//3 37//3 48//3
f 50//2 39//2 35//2
f 54//1 35//1 41//1
f 61//3 56//3 53//3
f 57//1 55//1 49//1
f 63//1 54//1 55//1
f 59//3 53//3 51//3
f 60//4 49//4 52//4
f 64//3 52//3 56//3
f 58//2 51//2 50//2
f 62//1 50//1 54//1
f 2//1 4//1 3//1
f 4//2 8//2 7//2
f 8//3 6//3 5//3
f 6//4 2//4 1//4
f 7//5 5//5 1//5
f 4//6 2//6 6//6
f 10//1 12//1 11//1
f 12//2 16//2 15//2
f 16//3 14//3 13//3
f 14//4 10//4 9//4
f 15//5 13//5 9//5
f 12//6 10//6 14//6
f 18//1 20//1 19//1
f 20//2 24//2 23//2
f 24//3 22//3 21//3
f 22//4 18//4 17//4
f 23//5 21//5 17//5
f 20//6 18//6 22//6
f 26//1 28//1 27//1
f 28//2 32//2 31//2
f 32//3 30//3 29//3
f 30//4 26//4 25//4
f 31//5 29//5 25//5
f 28//6 26//6 30//6
f 42//1 36//1 58//1
f 36//2 40//2 59//2
f 64//3 46//3 38//3
f 38//4 34//4 57//4
f 48//5 37//5 33//5
f 47//6 34//6 38//6
f 36//6 42//6 44//6
f 39//5 43//5 41//5
f 40//3 44//3 61//3
f 47//1 42//1 62//1
f 34//1 47//1 63//1
f 42//6 47//6 46//6
f 43//5 48//5 45//5
f 61//3 44//3 46//3
f 53//3 56//3 48//3
f 33//1 49//1 55//1
f 45//1 55//1 54//1
f 51//3 53//3 43//3
f 52//4 49//4 33//4
f 56//3 52//3 37//3
f 50//2 51//2 39//2
f 54//1 50//1 35//1
f 61//3 64//3 56//3
f 57//1 63//1 55//1
f 63//1 62//1 54//1
f 59//3 61//3 53//3
f 60//4 57//4 49//4
f 64//3 60//3 52//3
f 58//2 59//2 51//2
f 62//1 58//1 50//1
f 74//1 90//1 94//1
f 68//2 91//2 90//2
f 78//3 92//3 96//3
f 70//4 89//4 92//4
f 80//5 65//5 77//5
f 79//6 70//6 78//6
f 68//6 76//6 72//6
f 71//5 73//5 67//5
f 72//3 93//3 91//3
f 79//1 94//1 95//1
f 66//1 95//1 89//1
f 74//6 78//6 76//6
f 75//5 77//5 73//5
f 76//3 96//3 93//3
f 85//3 80//3 75//3
f 81//1 77//1 65//1
f 87//1 73//1 77//1
f 83//3 75//3 71//3
f 84//4 65//4 69//4
f 88//3 69//3 80//3
f 82//2 71//2 67//2
f 86//1 67//1 73//1
f 93//3 88//3 85//3
f 89//1 87//1 81//1
f 95//1 86//1 87//1
f 91//3 85//3 83//3
f 92//4 81//4 84//4
f 96//3 84//3 88//3
f 90//2 83//2 82//2
f 94//1 82//1 86//1
f 74//1 68//1 90//1
f 68//2 72//2 91//2
f 78//3 70//3 92//3
f 70//4 66//4 89//4
f 80//5 69//5 65//5
f 79//6 66//6 70//6
f 68//6 74//6 76//6
f 71//5 75//5 73//5
f 72//3 76//3 93//3
f 79//1 74//1 94//1
f 66//1 79//1 95//1
f 74//6 79//6 78//6
f 75//5 80//5 77//5
f 76//3 78//3 96//3
f 85//3 88//3 80//3
f 81//1 87//1 77//1
f 87//1 86//1 73//1
f 83//3 85//3 75//3
f 84//4 81//4 65//4
f 88//3 84//3 69//3
f 82//2 83//2 71//2
f 86//1 82//1 67//1
f 93//3 96//3 88//3
f 89//1 95//1 87//1
f 95//1 94//1 86//1
f 91//3 93//3 85//3
f 92//4 89//4 81//4
f 96//3 92//3 84//3
f 90//2 91//2 83//2
f 94//1 90//1 82//1
