# Blender v3.1.2 OBJ File: 'fnaf 1 map without ceiling.blend'
# www.blender.org
mtllib mejaGudang.mtl
o Cube.032_Cube.071
v 31.691563 -7.837991 -36.502041
v 31.691563 -1.633414 -36.502041
v 31.691563 -7.837991 -37.727711
v 31.691563 -1.633414 -37.727711
v 32.843838 -7.837991 -36.502041
v 32.843838 -1.633414 -36.502041
v 32.843838 -7.837991 -37.727711
v 32.843838 -1.633414 -37.727711
v 31.691563 -7.837991 -28.545889
v 31.691563 -1.633414 -28.545889
v 31.691563 -7.837991 -29.771561
v 31.691563 -1.633414 -29.771561
v 32.843838 -7.837991 -28.545889
v 32.843838 -1.633414 -28.545889
v 32.843838 -7.837991 -29.771561
v 32.843838 -1.633414 -29.771561
v 45.558006 -7.837990 -28.545889
v 45.558006 -1.633414 -28.545889
v 45.558006 -7.837990 -29.771561
v 45.558006 -1.633414 -29.771561
v 46.710281 -7.837990 -28.545889
v 46.710281 -1.633414 -28.545889
v 46.710281 -7.837990 -29.771561
v 46.710281 -1.633414 -29.771561
v 45.558006 -7.837990 -36.502041
v 45.558006 -1.633414 -36.502041
v 45.558006 -7.837990 -37.727711
v 45.558006 -1.633414 -37.727711
v 46.710281 -7.837990 -36.502041
v 46.710281 -1.633414 -36.502041
v 46.710281 -7.837990 -37.727711
v 46.710281 -1.633414 -37.727711
v 31.666706 -1.845681 -28.098583
v 31.666706 -1.338659 -28.098583
v 31.666706 -1.845681 -38.061016
v 31.666706 -1.338659 -38.061016
v 47.100117 -1.845681 -28.098583
v 47.100117 -1.338659 -28.098583
v 47.100117 -1.845681 -38.061016
v 47.100117 -1.338659 -38.061016
vn -1.0000 0.0000 0.0000
vn 0.0000 0.0000 -1.0000
vn 1.0000 0.0000 0.0000
vn 0.0000 0.0000 1.0000
vn 0.0000 -1.0000 0.0000
vn 0.0000 1.0000 0.0000
usemtl brown
s off
f 2//1 3//1 1//1
f 4//2 7//2 3//2
f 8//3 5//3 7//3
f 6//4 1//4 5//4
f 7//5 1//5 3//5
f 4//6 6//6 8//6
f 10//1 11//1 9//1
f 12//2 15//2 11//2
f 16//3 13//3 15//3
f 14//4 9//4 13//4
f 15//5 9//5 11//5
f 12//6 14//6 16//6
f 18//1 19//1 17//1
f 20//2 23//2 19//2
f 24//3 21//3 23//3
f 22//4 17//4 21//4
f 23//5 17//5 19//5
f 20//6 22//6 24//6
f 26//1 27//1 25//1
f 28//2 31//2 27//2
f 32//3 29//3 31//3
f 30//4 25//4 29//4
f 31//5 25//5 27//5
f 28//6 30//6 32//6
f 34//1 35//1 33//1
f 36//2 39//2 35//2
f 40//3 37//3 39//3
f 38//4 33//4 37//4
f 39//5 33//5 35//5
f 36//6 38//6 40//6
f 2//1 4//1 3//1
f 4//2 8//2 7//2
f 8//3 6//3 5//3
f 6//4 2//4 1//4
f 7//5 5//5 1//5
f 4//6 2//6 6//6
f 10//1 12//1 11//1
f 12//2 16//2 15//2
f 16//3 14//3 13//3
f 14//4 10//4 9//4
f 15//5 13//5 9//5
f 12//6 10//6 14//6
f 18//1 20//1 19//1
f 20//2 24//2 23//2
f 24//3 22//3 21//3
f 22//4 18//4 17//4
f 23//5 21//5 17//5
f 20//6 18//6 22//6
f 26//1 28//1 27//1
f 28//2 32//2 31//2
f 32//3 30//3 29//3
f 30//4 26//4 25//4
f 31//5 29//5 25//5
f 28//6 26//6 30//6
f 34//1 36//1 35//1
f 36//2 40//2 39//2
f 40//3 38//3 37//3
f 38//4 34//4 33//4
f 39//5 37//5 33//5
f 36//6 34//6 38//6
