# Blender v3.0.0 OBJ File: 'fnaf 1 map without ceiling.blend'
# www.blender.org
o Cube.194_Cube.036
v -101.026802 -18.795307 32.180958
v -101.026802 30.584015 32.180958
v -101.026802 -18.795307 34.117741
v -101.026802 30.584015 34.117741
v -106.125427 -18.795303 32.180969
v -106.125427 30.584011 32.180969
v -106.125427 -18.795303 34.117748
v -106.125427 30.584011 34.117748
v -101.026802 5.894354 32.180958
v -101.026802 5.894354 34.117741
v -106.125427 5.894354 34.117748
v -106.125427 5.894354 32.180969
v -103.334686 -18.795303 34.117744
v -103.334686 30.584011 34.117744
v -103.334686 -18.795303 32.180965
v -103.334686 30.584011 32.180965
v -103.334686 5.894354 32.180965
v -103.334686 5.894354 34.117744
v -101.026802 -6.450475 34.117741
v -106.125427 -6.450474 34.117748
v -106.125427 -6.450474 32.180969
v -101.026802 -6.450475 32.180958
v -103.334686 -6.450474 34.117744
v -103.334686 -6.450474 32.180965
v -101.026802 4.440145 32.180958
v -101.026802 4.440145 34.117741
v -106.125427 4.440144 34.117748
v -106.125427 4.440144 32.180969
v -103.334686 4.440144 34.117744
v -103.334686 4.440144 32.180965
v -101.026802 -5.148951 34.117741
v -106.125427 -5.148950 34.117748
v -106.125427 -5.148950 32.180969
v -103.334686 -5.148950 34.117744
v -103.334686 -5.148950 32.180965
v -101.026802 -5.148951 32.180958
v -101.956573 -18.795300 34.117741
v -101.956581 30.584007 32.180962
v -101.956581 5.894354 32.180962
v -101.956573 30.584007 34.117741
v -101.956581 -18.795300 32.180962
v -101.956573 5.894354 34.117741
v -101.956573 -6.450472 34.117741
v -101.956581 -6.450472 32.180962
v -101.956573 4.440144 34.117741
v -101.956581 4.440144 32.180962
v -101.956581 -5.148948 32.180962
v -101.956573 -5.148948 34.117741
v -101.417938 -18.795307 34.117741
v -101.417938 30.584015 32.180962
v -101.417938 5.894354 32.180962
v -101.417938 -6.450475 32.180962
v -101.417938 4.440145 32.180962
v -101.417938 -5.148951 32.180962
v -101.417938 30.584015 34.117741
v -101.417938 -18.795307 32.180962
v -101.417938 5.894354 34.117741
v -101.417938 -6.450475 34.117741
v -101.417938 4.440145 34.117741
v -101.417938 -5.148951 34.117741
v -101.222366 -18.795307 34.117741
v -101.222366 30.584015 32.180958
v -101.222366 5.894354 32.180958
v -101.222366 -6.450475 32.180958
v -101.222366 4.440145 32.180958
v -101.222366 -5.148951 32.180958
v -101.222366 30.584015 34.117741
v -101.222366 -18.795307 32.180958
v -101.222366 5.894354 34.117741
v -101.222366 -6.450475 34.117741
v -101.222366 4.440145 34.117741
v -101.222366 -5.148951 34.117741
v -101.613503 30.584015 34.117741
v -101.613503 -18.795307 32.180962
v -101.613503 5.894354 34.117741
v -101.613503 -6.450475 34.117741
v -101.613503 4.440145 34.117741
v -101.613503 -5.148951 34.117741
v -101.613503 -18.795307 34.117741
v -101.613503 30.584015 32.180962
v -101.613503 5.894354 32.180962
v -101.613503 -6.450475 32.180962
v -101.613503 4.440145 32.180962
v -101.613503 -5.148951 32.180962
v -102.637001 30.584011 34.117741
v -102.637001 -18.795303 32.180962
v -102.637001 5.894354 34.117741
v -102.637001 -6.450474 34.117741
v -102.637001 4.440144 34.117741
v -102.637001 -5.148950 34.117741
v -102.637001 -18.795303 34.117741
v -102.637001 30.584011 32.180962
v -102.637001 5.894354 32.180962
v -102.637001 -6.450474 32.180962
v -102.637001 4.440144 32.180962
v -102.637001 -5.148950 32.180962
v -102.288162 -18.795303 34.117741
v -102.288162 30.584011 32.180962
v -102.288162 5.894354 32.180962
v -102.288162 -6.450474 32.180962
v -102.288162 4.440144 32.180962
v -102.288162 -5.148950 32.180962
v -102.288162 30.584011 34.117741
v -102.288162 -18.795303 32.180962
v -102.288162 5.894354 34.117741
v -102.288162 -6.450474 34.117741
v -102.288162 4.440144 34.117741
v -102.288162 -5.148950 34.117741
v -102.985847 30.584011 34.117744
v -102.985847 -18.795303 32.180962
v -102.985847 5.894354 34.117744
v -102.985847 -6.450474 34.117744
v -102.985847 4.440144 34.117744
v -102.985847 -5.148950 34.117744
v -102.985847 -18.795303 34.117744
v -102.985847 30.584011 32.180962
v -102.985847 5.894354 32.180962
v -102.985847 -6.450474 32.180962
v -102.985847 4.440144 32.180962
v -102.985847 -5.148950 32.180962
v -104.730057 30.584011 34.117744
v -104.730057 -18.795303 32.180965
v -104.730057 5.894354 34.117744
v -104.730057 -18.795303 34.117744
v -104.730057 30.584011 32.180965
v -104.730057 5.894354 32.180965
v -104.730057 -6.450474 32.180965
v -104.730057 -6.450474 34.117744
v -104.730057 4.440144 32.180965
v -104.730057 4.440144 34.117744
v -104.730057 -5.148950 34.117744
v -104.730057 -5.148950 32.180965
v -104.032372 -18.795303 34.117744
v -104.032372 30.584011 32.180965
v -104.032372 5.894354 32.180965
v -104.032372 -6.450474 32.180965
v -104.032372 4.440144 32.180965
v -104.032372 -5.148950 32.180965
v -104.032372 30.584011 34.117744
v -104.032372 -18.795303 32.180965
v -104.032372 5.894354 34.117744
v -104.032372 -6.450474 34.117744
v -104.032372 4.440144 34.117744
v -104.032372 -5.148950 34.117744
v -105.427742 30.584011 34.117744
v -105.427742 -18.795303 32.180965
v -105.427742 5.894354 34.117744
v -105.427742 -6.450474 34.117744
v -105.427742 4.440144 34.117744
v -105.427742 -5.148950 34.117744
v -105.427742 -18.795303 34.117744
v -105.427742 30.584011 32.180965
v -105.427742 5.894354 32.180965
v -105.427742 -6.450474 32.180965
v -105.427742 4.440144 32.180965
v -105.427742 -5.148950 32.180965
v -105.776588 30.584011 34.117748
v -105.776588 -18.795303 32.180969
v -105.776588 5.894354 34.117748
v -105.776588 -6.450474 34.117748
v -105.776588 4.440144 34.117748
v -105.776588 -5.148950 34.117748
v -105.776588 -18.795303 34.117748
v -105.776588 30.584011 32.180969
v -105.776588 5.894354 32.180969
v -105.776588 -6.450474 32.180969
v -105.776588 4.440144 32.180969
v -105.776588 -5.148950 32.180969
v -105.078903 -18.795303 34.117744
v -105.078903 30.584011 32.180965
v -105.078903 5.894354 32.180965
v -105.078903 -6.450474 32.180965
v -105.078903 4.440144 32.180965
v -105.078903 -5.148950 32.180965
v -105.078903 30.584011 34.117744
v -105.078903 -18.795303 32.180965
v -105.078903 5.894354 34.117744
v -105.078903 -6.450474 34.117744
v -105.078903 4.440144 34.117744
v -105.078903 -5.148950 34.117744
v -104.381218 30.584011 34.117744
v -104.381218 -18.795303 32.180965
v -104.381218 5.894354 34.117744
v -104.381218 -6.450474 34.117744
v -104.381218 4.440144 34.117744
v -104.381218 -5.148950 34.117744
v -104.381218 -18.795303 34.117744
v -104.381218 30.584011 32.180965
v -104.381218 5.894354 32.180965
v -104.381218 -6.450474 32.180965
v -104.381218 4.440144 32.180965
v -104.381218 -5.148950 32.180965
v -103.683533 -18.795303 34.117744
v -103.683533 30.584011 32.180965
v -103.683533 5.894354 32.180965
v -103.683533 -6.450474 32.180965
v -103.683533 4.440144 32.180965
v -103.683533 -5.148950 32.180965
v -103.683533 30.584011 34.117744
v -103.683533 -18.795303 32.180965
v -103.683533 5.894354 34.117744
v -103.683533 -6.450474 34.117744
v -103.683533 4.440144 34.117744
v -103.683533 -5.148950 34.117744
v -101.026802 -0.354404 32.180958
v -101.026802 -0.354404 34.117741
v -106.125427 -0.354404 34.117748
v -106.125427 -0.354404 32.180969
v -103.334686 -0.354404 34.117744
v -103.334686 -0.354404 32.180965
v -101.956581 -0.354404 32.180962
v -101.956573 -0.354404 34.117741
v -101.417938 -0.354404 34.117741
v -101.417938 -0.354404 32.180962
v -101.222366 -0.354404 34.117741
v -101.222366 -0.354404 32.180958
v -101.613503 -0.354404 32.180962
v -101.613503 -0.354404 34.117741
v -102.637001 -0.354404 32.180962
v -102.637001 -0.354404 34.117741
v -102.288162 -0.354404 34.117741
v -102.288162 -0.354404 32.180962
v -102.985847 -0.354404 32.180962
v -102.985847 -0.354404 34.117744
v -104.730057 -0.354404 34.117744
v -104.730057 -0.354404 32.180965
v -104.032372 -0.354404 34.117744
v -104.032372 -0.354404 32.180965
v -105.427742 -0.354404 32.180965
v -105.427742 -0.354404 34.117744
v -105.776588 -0.354404 32.180969
v -105.776588 -0.354404 34.117748
v -105.078903 -0.354404 34.117744
v -105.078903 -0.354404 32.180965
v -104.381218 -0.354404 32.180965
v -104.381218 -0.354404 34.117744
v -103.683533 -0.354404 34.117744
v -103.683533 -0.354404 32.180965
v -101.026802 26.390133 32.180958
v -101.026802 26.390133 34.117741
v -106.125427 26.390129 34.117748
v -106.125427 26.390129 32.180969
v -103.334686 26.390129 32.180965
v -103.334686 26.390129 34.117744
v -101.956573 26.390125 34.117741
v -101.956581 26.390125 32.180962
v -101.417938 26.390133 34.117741
v -101.417938 26.390133 32.180962
v -101.222366 26.390133 34.117741
v -101.222366 26.390133 32.180958
v -101.613503 26.390133 32.180962
v -101.613503 26.390133 34.117741
v -102.637001 26.390129 32.180962
v -102.637001 26.390129 34.117741
v -102.288162 26.390129 34.117741
v -102.288162 26.390129 32.180962
v -102.985847 26.390129 32.180962
v -102.985847 26.390129 34.117744
v -104.730057 26.390129 32.180965
v -104.730057 26.390129 34.117744
v -104.032372 26.390129 34.117744
v -104.032372 26.390129 32.180965
v -105.427742 26.390129 32.180965
v -105.427742 26.390129 34.117744
v -105.776588 26.390129 32.180969
v -105.776588 26.390129 34.117748
v -105.078903 26.390129 34.117744
v -105.078903 26.390129 32.180965
v -104.381218 26.390129 32.180965
v -104.381218 26.390129 34.117744
v -103.683533 26.390129 34.117744
v -103.683533 26.390129 32.180965
vn 1.0000 0.0000 0.0000
vn 0.0000 0.0000 1.0000
vn -1.0000 0.0000 0.0000
vn 0.0000 0.0000 -1.0000
vn 0.0000 -1.0000 0.0000
vn 0.0000 1.0000 0.0000
vn -0.0001 0.0000 -1.0000
s off
f 2//1 240//1 239//1
f 157//2 241//2 266//2
f 8//3 242//3 241//3
f 62//4 239//4 250//4
f 163//5 5//5 158//5
f 4//6 62//6 67//6
f 14//6 194//6 199//6
f 115//5 15//5 110//5
f 194//4 243//4 272//4
f 109//2 244//2 258//2
f 196//4 15//4 200//4
f 112//2 13//2 115//2
f 160//2 7//2 163//2
f 20//3 5//3 7//3
f 100//4 41//4 104//4
f 252//2 40//2 245//2
f 40//6 98//6 103//6
f 256//4 38//4 246//4
f 67//2 247//2 249//2
f 55//6 80//6 73//6
f 80//4 248//4 251//4
f 4//2 249//2 240//2
f 67//6 50//6 55//6
f 50//4 250//4 248//4
f 38//4 251//4 246//4
f 73//6 38//6 40//6
f 55//2 252//2 247//2
f 116//4 253//4 257//4
f 85//6 116//6 109//6
f 118//4 86//4 110//4
f 106//2 91//2 97//2
f 103//2 254//2 255//2
f 97//5 86//5 104//5
f 37//5 104//5 41//5
f 40//2 255//2 245//2
f 37//2 106//2 97//2
f 92//4 256//4 253//4
f 103//6 92//6 85//6
f 94//4 104//4 86//4
f 24//4 110//4 15//4
f 109//6 16//6 14//6
f 16//4 257//4 243//4
f 88//2 115//2 91//2
f 85//2 258//2 254//2
f 91//5 110//5 86//5
f 184//2 124//2 187//2
f 172//4 122//4 176//4
f 170//4 259//4 268//4
f 121//6 170//6 175//6
f 187//5 122//5 182//5
f 181//2 260//2 270//2
f 199//2 261//2 271//2
f 193//5 140//5 200//5
f 202//2 133//2 193//2
f 190//4 140//4 182//4
f 188//4 262//4 269//4
f 139//6 188//6 181//6
f 145//6 164//6 157//6
f 164//4 263//4 265//4
f 166//4 146//4 158//4
f 178//2 151//2 169//2
f 169//5 146//5 176//5
f 175//2 264//2 267//2
f 21//4 158//4 5//4
f 6//4 265//4 242//4
f 157//6 6//6 8//6
f 148//2 163//2 151//2
f 163//5 146//5 151//5
f 145//2 266//2 264//2
f 121//2 267//2 260//2
f 124//5 176//5 122//5
f 128//2 169//2 124//2
f 175//6 152//6 145//6
f 152//4 268//4 263//4
f 154//4 176//4 146//4
f 181//6 125//6 121//6
f 125//4 269//4 259//4
f 127//4 182//4 122//4
f 139//2 270//2 261//2
f 133//5 182//5 140//5
f 142//2 187//2 133//2
f 23//2 193//2 13//2
f 13//5 200//5 15//5
f 14//2 271//2 244//2
f 136//4 200//4 140//4
f 134//4 272//4 262//4
f 199//6 134//6 139//6
f 262//4 195//4 135//4
f 244//2 201//2 18//2
f 261//2 183//2 141//2
f 259//4 189//4 126//4
f 263//4 171//4 153//4
f 260//2 177//2 123//2
f 264//2 159//2 147//2
f 242//4 165//4 12//4
f 267//2 147//2 177//2
f 265//4 153//4 165//4
f 269//4 135//4 189//4
f 271//2 141//2 201//2
f 270//2 123//2 183//2
f 268//4 126//4 171//4
f 254//2 111//2 87//2
f 243//4 117//4 17//4
f 253//4 99//4 93//4
f 245//2 105//2 42//2
f 255//2 87//2 105//2
f 257//4 93//4 117//4
f 256//4 39//4 99//4
f 258//2 18//2 111//2
f 272//4 17//4 195//4
f 241//3 12//3 11//3
f 266//2 11//2 159//2
f 2//1 4//1 240//1
f 157//2 8//2 241//2
f 8//3 6//3 242//3
f 62//4 2//4 239//4
f 163//5 7//5 5//5
f 4//6 2//6 62//6
f 14//6 16//6 194//6
f 115//5 13//5 15//5
f 194//4 16//4 243//4
f 109//2 14//2 244//2
f 196//4 24//4 15//4
f 112//2 23//2 13//2
f 160//2 20//2 7//2
f 20//3 21//3 5//3
f 100//4 44//4 41//4
f 252//2 73//2 40//2
f 40//6 38//6 98//6
f 256//4 98//4 38//4
f 67//2 55//2 247//2
f 55//6 50//6 80//6
f 80//4 50//4 248//4
f 4//2 67//2 249//2
f 67//6 62//6 50//6
f 50//4 62//4 250//4
f 38//4 80//4 251//4
f 73//6 80//6 38//6
f 55//2 73//2 252//2
f 116//4 92//4 253//4
f 85//6 92//6 116//6
f 118//4 94//4 86//4
f 106//2 88//2 91//2
f 103//2 85//2 254//2
f 97//5 91//5 86//5
f 37//5 97//5 104//5
f 40//2 103//2 255//2
f 37//2 43//2 106//2
f 92//4 98//4 256//4
f 103//6 98//6 92//6
f 94//4 100//4 104//4
f 24//4 118//4 110//4
f 109//6 116//6 16//6
f 16//4 116//4 257//4
f 88//2 112//2 115//2
f 85//2 109//2 258//2
f 91//5 115//5 110//5
f 184//2 128//2 124//2
f 172//4 127//4 122//4
f 170//4 125//4 259//4
f 121//6 125//6 170//6
f 187//5 124//5 122//5
f 181//2 121//2 260//2
f 199//2 139//2 261//2
f 193//5 133//5 140//5
f 202//2 142//2 133//2
f 190//4 136//4 140//4
f 188//4 134//4 262//4
f 139//6 134//6 188//6
f 145//6 152//6 164//6
f 164//4 152//4 263//4
f 166//4 154//4 146//4
f 178//2 148//2 151//2
f 169//5 151//5 146//5
f 175//2 145//2 264//2
f 21//4 166//4 158//4
f 6//4 164//4 265//4
f 157//6 164//6 6//6
f 148//2 160//2 163//2
f 163//5 158//5 146//5
f 145//2 157//2 266//2
f 121//2 175//2 267//2
f 124//5 169//5 176//5
f 128//2 178//2 169//2
f 175//6 170//6 152//6
f 152//4 170//4 268//4
f 154//4 172//4 176//4
f 181//6 188//6 125//6
f 125//4 188//4 269//4
f 127//4 190//4 182//4
f 139//2 181//2 270//2
f 133//5 187//5 182//5
f 142//2 184//2 187//2
f 23//2 202//2 193//2
f 13//5 193//5 200//5
f 14//2 199//2 271//2
f 136//4 196//4 200//4
f 134//4 194//4 272//4
f 199//6 194//6 134//6
f 262//4 272//4 195//4
f 244//2 271//2 201//2
f 261//2 270//2 183//2
f 259//4 269//4 189//4
f 263//4 268//4 171//4
f 260//2 267//2 177//2
f 264//2 266//2 159//2
f 242//4 265//4 165//4
f 267//2 264//2 147//2
f 265//4 263//4 153//4
f 269//4 262//4 135//4
f 271//2 261//2 141//2
f 270//2 260//2 123//2
f 268//4 259//4 126//4
f 254//2 258//2 111//2
f 243//4 257//4 117//4
f 253//4 256//4 99//4
f 245//2 255//2 105//2
f 255//2 254//2 87//2
f 257//4 253//4 93//4
f 256//4 246//4 39//4
f 258//2 244//2 18//2
f 272//4 243//4 17//4
f 241//3 242//3 12//3
f 266//2 241//2 11//2
f 11//3 28//3 27//3
f 159//2 27//2 161//2
f 111//2 29//2 113//2
f 195//4 30//4 197//4
f 32//3 21//3 20//3
f 162//2 20//2 160//2
f 114//2 23//2 112//2
f 198//4 24//4 196//4
f 102//4 44//4 100//4
f 101//4 39//4 46//4
f 117//4 95//4 119//4
f 120//4 94//4 118//4
f 108//2 88//2 106//2
f 105//2 89//2 107//2
f 42//2 107//2 45//2
f 43//2 108//2 106//2
f 93//4 101//4 95//4
f 96//4 100//4 94//4
f 35//4 118//4 24//4
f 17//4 119//4 30//4
f 90//2 112//2 88//2
f 87//2 113//2 89//2
f 174//4 127//4 172//4
f 186//2 128//2 184//2
f 171//4 129//4 173//4
f 183//2 130//2 185//2
f 201//2 143//2 203//2
f 204//2 142//2 202//2
f 192//4 136//4 190//4
f 189//4 137//4 191//4
f 165//4 155//4 167//4
f 168//4 154//4 166//4
f 180//2 148//2 178//2
f 177//2 149//2 179//2
f 33//4 166//4 21//4
f 12//4 167//4 28//4
f 150//2 160//2 148//2
f 147//2 161//2 149//2
f 123//2 179//2 130//2
f 131//2 178//2 128//2
f 153//4 173//4 155//4
f 156//4 172//4 154//4
f 126//4 191//4 129//4
f 132//4 190//4 127//4
f 141//2 185//2 143//2
f 144//2 184//2 142//2
f 34//2 202//2 23//2
f 18//2 203//2 29//2
f 138//4 196//4 136//4
f 135//4 197//4 137//4
f 11//3 12//3 28//3
f 159//2 11//2 27//2
f 111//2 18//2 29//2
f 195//4 17//4 30//4
f 32//3 33//3 21//3
f 162//2 32//2 20//2
f 114//2 34//2 23//2
f 198//4 35//4 24//4
f 102//4 47//4 44//4
f 101//4 99//4 39//4
f 117//4 93//4 95//4
f 120//4 96//4 94//4
f 108//2 90//2 88//2
f 105//2 87//2 89//2
f 42//2 105//2 107//2
f 43//2 48//2 108//2
f 93//4 99//4 101//4
f 96//4 102//4 100//4
f 35//4 120//4 118//4
f 17//4 117//4 119//4
f 90//2 114//2 112//2
f 87//2 111//2 113//2
f 174//4 132//4 127//4
f 186//2 131//2 128//2
f 171//4 126//4 129//4
f 183//2 123//2 130//2
f 201//2 141//2 143//2
f 204//2 144//2 142//2
f 192//4 138//4 136//4
f 189//4 135//4 137//4
f 165//4 153//4 155//4
f 168//4 156//4 154//4
f 180//2 150//2 148//2
f 177//2 147//2 149//2
f 33//4 168//4 166//4
f 12//4 165//4 167//4
f 150//2 162//2 160//2
f 147//2 159//2 161//2
f 123//2 177//2 179//2
f 131//2 180//2 178//2
f 153//4 171//4 173//4
f 156//4 174//4 172//4
f 126//4 189//4 191//4
f 132//4 192//4 190//4
f 141//2 183//2 185//2
f 144//2 186//2 184//2
f 34//2 204//2 202//2
f 18//2 201//2 203//2
f 138//4 198//4 196//4
f 135//4 195//4 197//4
f 197//4 210//4 238//4
f 27//3 208//3 207//3
f 101//4 211//4 222//4
f 119//4 219//4 223//4
f 45//2 221//2 212//2
f 89//2 224//2 220//2
f 173//4 226//4 234//4
f 191//4 228//4 235//4
f 167//4 229//4 231//4
f 149//2 232//2 230//2
f 130//2 233//2 225//2
f 143//2 236//2 227//2
f 29//2 237//2 209//2
f 228//4 198//4 138//4
f 226//4 192//4 132//4
f 229//4 174//4 156//4
f 208//4 168//4 33//4
f 233//2 150//2 180//2
f 237//2 144//2 204//2
f 236//2 131//2 186//2
f 210//4 120//4 35//4
f 219//4 102//4 96//4
f 221//2 90//2 108//2
f 232//2 32//2 162//2
f 224//2 34//2 114//2
f 197//4 30//4 210//4
f 27//3 28//3 208//3
f 101//4 46//4 211//4
f 119//4 95//4 219//4
f 45//2 107//2 221//2
f 89//2 113//2 224//2
f 173//4 129//4 226//4
f 191//4 137//4 228//4
f 167//4 155//4 229//4
f 149//2 161//2 232//2
f 130//2 179//2 233//2
f 143//2 185//2 236//2
f 29//2 203//2 237//2
f 228//4 238//4 198//4
f 226//4 235//4 192//4
f 229//4 234//4 174//4
f 208//4 231//4 168//4
f 233//2 230//2 150//2
f 237//2 227//2 144//2
f 236//2 225//2 131//2
f 210//4 223//4 120//4
f 219//4 222//4 102//4
f 221//2 220//2 90//2
f 232//2 207//2 32//2
f 224//2 209//2 34//2
f 63//4 25//4 65//4
f 9//1 26//1 25//1
f 22//1 3//1 1//1
f 64//4 1//4 68//4
f 113//2 209//2 224//2
f 25//1 206//1 205//1
f 161//2 207//2 232//2
f 65//4 205//4 216//4
f 66//4 22//4 64//4
f 36//1 19//1 22//1
f 78//2 43//2 76//2
f 218//2 45//2 212//2
f 76//2 37//2 79//2
f 79//5 41//5 74//5
f 77//2 42//2 45//2
f 69//2 59//2 71//2
f 61//5 56//5 68//5
f 70//2 49//2 61//2
f 71//2 213//2 215//2
f 72//2 58//2 70//2
f 84//4 52//4 82//4
f 83//4 214//4 217//4
f 82//4 56//4 74//4
f 81//4 53//4 83//4
f 31//2 70//2 19//2
f 26//2 215//2 206//2
f 19//2 61//2 3//2
f 3//5 68//5 1//5
f 10//2 71//2 26//2
f 54//4 64//4 52//4
f 53//4 216//4 214//4
f 52//4 68//4 56//4
f 51//4 65//4 53//4
f 39//4 83//4 46//4
f 41//4 82//4 74//4
f 46//4 217//4 211//4
f 44//4 84//4 82//4
f 57//2 77//2 59//2
f 49//5 74//5 56//5
f 58//2 79//2 49//2
f 59//2 218//2 213//2
f 60//2 76//2 58//2
f 107//2 220//2 221//2
f 95//4 222//4 219//4
f 30//4 223//4 210//4
f 185//2 225//2 236//2
f 203//2 227//2 237//2
f 179//2 230//2 233//2
f 28//4 231//4 208//4
f 155//4 234//4 229//4
f 129//4 235//4 226//4
f 137//4 238//4 228//4
f 209//2 204//2 34//2
f 227//2 186//2 144//2
f 225//2 180//2 131//2
f 230//2 162//2 150//2
f 231//4 156//4 168//4
f 235//4 138//4 192//4
f 234//4 132//4 174//4
f 220//2 114//2 90//2
f 48//2 221//2 108//2
f 223//4 96//4 120//4
f 213//2 78//2 60//2
f 47//4 217//4 84//4
f 214//4 66//4 54//4
f 206//2 72//2 31//2
f 217//4 54//4 84//4
f 215//2 60//2 72//2
f 218//2 48//2 78//2
f 222//4 47//4 102//4
f 216//4 36//4 66//4
f 207//3 33//3 32//3
f 205//1 31//1 36//1
f 238//4 35//4 198//4
f 247//2 75//2 57//2
f 246//4 81//4 39//4
f 248//4 63//4 51//4
f 240//2 69//2 10//2
f 251//4 51//4 81//4
f 249//2 57//2 69//2
f 75//2 245//2 42//2
f 250//4 9//4 63//4
f 239//1 10//1 9//1
f 63//4 9//4 25//4
f 9//1 10//1 26//1
f 22//1 19//1 3//1
f 64//4 22//4 1//4
f 113//2 29//2 209//2
f 25//1 26//1 206//1
f 161//2 27//2 207//2
f 65//4 25//4 205//4
f 66//4 36//4 22//4
f 36//1 31//1 19//1
f 78//2 48//2 43//2
f 218//2 77//2 45//2
f 76//2 43//2 37//2
f 79//5 37//5 41//5
f 77//2 75//2 42//2
f 69//2 57//2 59//2
f 61//5 49//5 56//5
f 70//2 58//2 49//2
f 71//2 59//2 213//2
f 72//2 60//2 58//2
f 84//4 54//4 52//4
f 83//4 53//4 214//4
f 82//4 52//4 56//4
f 81//4 51//4 53//4
f 31//2 72//2 70//2
f 26//2 71//2 215//2
f 19//2 70//2 61//2
f 3//5 61//5 68//5
f 10//2 69//2 71//2
f 54//7 66//7 64//7
f 53//4 65//4 216//4
f 52//7 64//7 68//7
f 51//7 63//7 65//7
f 39//4 81//4 83//4
f 41//4 44//4 82//4
f 46//4 83//4 217//4
f 44//4 47//4 84//4
f 57//2 75//2 77//2
f 49//5 79//5 74//5
f 58//2 76//2 79//2
f 59//2 77//2 218//2
f 60//2 78//2 76//2
f 107//2 89//2 220//2
f 95//4 101//4 222//4
f 30//4 119//4 223//4
f 185//2 130//2 225//2
f 203//2 143//2 227//2
f 179//2 149//2 230//2
f 28//4 167//4 231//4
f 155//4 173//4 234//4
f 129//4 191//4 235//4
f 137//4 197//4 238//4
f 209//2 237//2 204//2
f 227//2 236//2 186//2
f 225//2 233//2 180//2
f 230//2 232//2 162//2
f 231//4 229//4 156//4
f 235//4 228//4 138//4
f 234//4 226//4 132//4
f 220//2 224//2 114//2
f 48//2 212//2 221//2
f 223//4 219//4 96//4
f 213//2 218//2 78//2
f 47//4 211//4 217//4
f 214//4 216//4 66//4
f 206//2 215//2 72//2
f 217//4 214//4 54//4
f 215//2 213//2 60//2
f 218//2 212//2 48//2
f 222//4 211//4 47//4
f 216//4 205//4 36//4
f 207//3 208//3 33//3
f 205//1 206//1 31//1
f 238//4 210//4 35//4
f 247//2 252//2 75//2
f 246//4 251//4 81//4
f 248//4 250//4 63//4
f 240//2 249//2 69//2
f 251//4 248//4 51//4
f 249//2 247//2 57//2
f 75//2 252//2 245//2
f 250//4 239//4 9//4
f 239//1 240//1 10//1
