# Blender v3.0.0 OBJ File: 'fnaf 1 map without ceiling.blend'
# www.blender.org
o Cube.023_Cube.062
v 44.622223 -20.791105 -18.350338
v 44.622223 30.579149 -18.350338
v 44.622223 -20.791105 -16.363148
v 44.622223 30.579149 -16.363148
v 23.613426 -20.791105 -18.350330
v 23.613426 30.579149 -18.350330
v 23.613426 -20.791105 -16.363140
v 23.613426 30.579149 -16.363140
v 44.622223 4.894022 -18.350338
v 44.622223 4.894022 -16.363148
v 23.613426 4.894022 -16.363140
v 23.613426 4.894022 -18.350330
v 34.117825 -20.791105 -16.363144
v 34.117825 30.579149 -16.363144
v 34.117825 -20.791105 -18.350334
v 34.117825 30.579149 -18.350334
v 34.117825 4.894022 -18.350334
v 34.117825 4.894022 -16.363144
v 44.622223 -7.948542 -16.363148
v 23.613426 -7.948542 -16.363140
v 23.613426 -7.948542 -18.350330
v 44.622223 -7.948542 -18.350338
v 34.117825 -7.948542 -16.363144
v 34.117825 -7.948542 -18.350334
v 44.622223 3.381179 -18.350338
v 44.622223 3.381179 -16.363148
v 23.613426 3.381179 -16.363140
v 23.613426 3.381179 -18.350330
v 34.117825 3.381179 -16.363144
v 34.117825 3.381179 -18.350334
v 44.622223 -6.594541 -16.363148
v 23.613426 -6.594541 -16.363140
v 23.613426 -6.594541 -18.350330
v 34.117825 -6.594541 -16.363144
v 34.117825 -6.594541 -18.350334
v 44.622223 -6.594541 -18.350338
v 39.370026 -20.791105 -16.363146
v 39.370026 30.579149 -18.350336
v 39.370026 4.894022 -18.350336
v 39.370026 30.579149 -16.363146
v 39.370026 -20.791105 -18.350336
v 39.370026 4.894022 -16.363146
v 39.370026 -7.948542 -16.363146
v 39.370026 -7.948542 -18.350336
v 39.370026 3.381179 -16.363146
v 39.370026 3.381179 -18.350336
v 39.370026 -6.594541 -18.350336
v 39.370026 -6.594541 -16.363146
v 41.996124 -20.791105 -16.363146
v 41.996124 30.579149 -18.350336
v 41.996124 4.894022 -18.350336
v 41.996124 -7.948542 -18.350336
v 41.996124 3.381179 -18.350336
v 41.996124 -6.594541 -18.350336
v 41.996124 30.579149 -16.363146
v 41.996124 -20.791105 -18.350336
v 41.996124 4.894022 -16.363146
v 41.996124 -7.948542 -16.363146
v 41.996124 3.381179 -16.363146
v 41.996124 -6.594541 -16.363146
v 43.309174 -20.791105 -16.363148
v 43.309174 30.579149 -18.350338
v 43.309174 4.894022 -18.350338
v 43.309174 -7.948542 -18.350338
v 43.309174 3.381179 -18.350338
v 43.309174 -6.594541 -18.350338
v 43.309174 30.579149 -16.363148
v 43.309174 -20.791105 -18.350338
v 43.309174 4.894022 -16.363148
v 43.309174 -7.948542 -16.363148
v 43.309174 3.381179 -16.363148
v 43.309174 -6.594541 -16.363148
v 40.683075 30.579149 -16.363146
v 40.683075 -20.791105 -18.350336
v 40.683075 4.894022 -16.363146
v 40.683075 -7.948542 -16.363146
v 40.683075 3.381179 -16.363146
v 40.683075 -6.594541 -16.363146
v 40.683075 -20.791105 -16.363146
v 40.683075 30.579149 -18.350336
v 40.683075 4.894022 -18.350336
v 40.683075 -7.948542 -18.350336
v 40.683075 3.381179 -18.350336
v 40.683075 -6.594541 -18.350336
v 36.743923 30.579149 -16.363144
v 36.743923 -20.791105 -18.350334
v 36.743923 4.894022 -16.363144
v 36.743923 -7.948542 -16.363144
v 36.743923 3.381179 -16.363144
v 36.743923 -6.594541 -16.363144
v 36.743923 -20.791105 -16.363144
v 36.743923 30.579149 -18.350334
v 36.743923 4.894022 -18.350334
v 36.743923 -7.948542 -18.350334
v 36.743923 3.381179 -18.350334
v 36.743923 -6.594541 -18.350334
v 38.056976 -20.791105 -16.363146
v 38.056973 30.579149 -18.350336
v 38.056973 4.894022 -18.350336
v 38.056973 -7.948542 -18.350336
v 38.056973 3.381179 -18.350336
v 38.056973 -6.594541 -18.350336
v 38.056976 30.579149 -16.363146
v 38.056973 -20.791105 -18.350336
v 38.056976 4.894022 -16.363146
v 38.056976 -7.948542 -16.363146
v 38.056976 3.381179 -16.363146
v 38.056976 -6.594541 -16.363146
v 35.430874 30.579149 -16.363144
v 35.430874 -20.791105 -18.350334
v 35.430874 4.894022 -16.363144
v 35.430874 -7.948542 -16.363144
v 35.430874 3.381179 -16.363144
v 35.430874 -6.594541 -16.363144
v 35.430874 -20.791105 -16.363144
v 35.430874 30.579149 -18.350334
v 35.430874 4.894022 -18.350334
v 35.430874 -7.948542 -18.350334
v 35.430874 3.381179 -18.350334
v 35.430874 -6.594541 -18.350334
v 28.865625 30.579149 -16.363142
v 28.865623 -20.791105 -18.350332
v 28.865625 4.894022 -16.363142
v 28.865625 -20.791105 -16.363142
v 28.865623 30.579149 -18.350332
v 28.865623 4.894022 -18.350332
v 28.865623 -7.948542 -18.350332
v 28.865625 -7.948542 -16.363142
v 28.865623 3.381179 -18.350332
v 28.865625 3.381179 -16.363142
v 28.865625 -6.594541 -16.363142
v 28.865623 -6.594541 -18.350332
v 31.491726 -20.791105 -16.363144
v 31.491724 30.579149 -18.350334
v 31.491724 4.894022 -18.350334
v 31.491724 -7.948542 -18.350334
v 31.491724 3.381179 -18.350334
v 31.491724 -6.594541 -18.350334
v 31.491726 30.579149 -16.363144
v 31.491724 -20.791105 -18.350334
v 31.491726 4.894022 -16.363144
v 31.491726 -7.948542 -16.363144
v 31.491726 3.381179 -16.363144
v 31.491726 -6.594541 -16.363144
v 26.239525 30.579149 -16.363142
v 26.239525 -20.791105 -18.350332
v 26.239525 4.894022 -16.363142
v 26.239525 -7.948542 -16.363142
v 26.239525 3.381179 -16.363142
v 26.239525 -6.594541 -16.363142
v 26.239525 -20.791105 -16.363142
v 26.239525 30.579149 -18.350332
v 26.239525 4.894022 -18.350332
v 26.239525 -7.948542 -18.350332
v 26.239525 3.381179 -18.350332
v 26.239525 -6.594541 -18.350332
v 24.926476 30.579149 -16.363140
v 24.926476 -20.791105 -18.350330
v 24.926476 4.894022 -16.363140
v 24.926476 -7.948542 -16.363140
v 24.926476 3.381179 -16.363140
v 24.926476 -6.594541 -16.363140
v 24.926476 -20.791105 -16.363140
v 24.926476 30.579149 -18.350330
v 24.926476 4.894022 -18.350330
v 24.926476 -7.948542 -18.350330
v 24.926476 3.381179 -18.350330
v 24.926476 -6.594541 -18.350330
v 27.552576 -20.791105 -16.363142
v 27.552574 30.579149 -18.350332
v 27.552574 4.894022 -18.350332
v 27.552574 -7.948542 -18.350332
v 27.552574 3.381179 -18.350332
v 27.552574 -6.594541 -18.350332
v 27.552576 30.579149 -16.363142
v 27.552574 -20.791105 -18.350332
v 27.552576 4.894022 -16.363142
v 27.552576 -7.948542 -16.363142
v 27.552576 3.381179 -16.363142
v 27.552576 -6.594541 -16.363142
v 30.178675 30.579149 -16.363142
v 30.178675 -20.791105 -18.350332
v 30.178675 4.894022 -16.363142
v 30.178675 -7.948542 -16.363142
v 30.178675 3.381179 -16.363142
v 30.178675 -6.594541 -16.363142
v 30.178675 -20.791105 -16.363142
v 30.178675 30.579149 -18.350332
v 30.178675 4.894022 -18.350332
v 30.178675 -7.948542 -18.350332
v 30.178675 3.381179 -18.350332
v 30.178675 -6.594541 -18.350332
v 32.804775 -20.791105 -16.363144
v 32.804775 30.579149 -18.350334
v 32.804775 4.894022 -18.350334
v 32.804775 -7.948542 -18.350334
v 32.804775 3.381179 -18.350334
v 32.804775 -6.594541 -18.350334
v 32.804775 30.579149 -16.363144
v 32.804775 -20.791105 -18.350334
v 32.804775 4.894022 -16.363144
v 32.804775 -7.948542 -16.363144
v 32.804775 3.381179 -16.363144
v 32.804775 -6.594541 -16.363144
v 44.622223 -1.606681 -18.350338
v 44.622223 -1.606681 -16.363148
v 23.613426 -1.606681 -16.363140
v 23.613426 -1.606681 -18.350330
v 34.117825 -1.606681 -16.363144
v 34.117825 -1.606681 -18.350334
v 39.370026 -1.606681 -18.350336
v 39.370026 -1.606681 -16.363146
v 41.996124 -1.606681 -16.363146
v 41.996124 -1.606681 -18.350336
v 43.309174 -1.606681 -16.363148
v 43.309174 -1.606681 -18.350338
v 40.683075 -1.606681 -18.350336
v 40.683075 -1.606681 -16.363146
v 36.743923 -1.606681 -18.350334
v 36.743923 -1.606681 -16.363144
v 38.056976 -1.606681 -16.363146
v 38.056973 -1.606681 -18.350336
v 35.430874 -1.606681 -18.350334
v 35.430874 -1.606681 -16.363144
v 28.865625 -1.606681 -16.363142
v 28.865623 -1.606681 -18.350332
v 31.491726 -1.606681 -16.363144
v 31.491724 -1.606681 -18.350334
v 26.239525 -1.606681 -18.350332
v 26.239525 -1.606681 -16.363142
v 24.926476 -1.606681 -18.350330
v 24.926476 -1.606681 -16.363140
v 27.552576 -1.606681 -16.363142
v 27.552574 -1.606681 -18.350332
v 30.178675 -1.606681 -18.350332
v 30.178675 -1.606681 -16.363142
v 32.804775 -1.606681 -16.363144
v 32.804775 -1.606681 -18.350334
v 44.622223 24.895863 -18.350338
v 44.622223 24.895863 -16.363148
v 23.613426 24.895863 -16.363140
v 23.613426 24.895863 -18.350330
v 34.117825 24.895863 -18.350334
v 34.117825 24.895863 -16.363144
v 39.370026 24.895863 -16.363146
v 39.370026 24.895863 -18.350336
v 41.996124 24.895863 -16.363146
v 41.996124 24.895863 -18.350336
v 43.309174 24.895863 -16.363148
v 43.309174 24.895863 -18.350338
v 40.683075 24.895863 -18.350336
v 40.683075 24.895863 -16.363146
v 36.743923 24.895863 -18.350334
v 36.743923 24.895863 -16.363144
v 38.056976 24.895863 -16.363146
v 38.056973 24.895863 -18.350336
v 35.430874 24.895863 -18.350334
v 35.430874 24.895863 -16.363144
v 28.865623 24.895863 -18.350332
v 28.865625 24.895863 -16.363142
v 31.491726 24.895863 -16.363144
v 31.491724 24.895863 -18.350334
v 26.239525 24.895863 -18.350332
v 26.239525 24.895863 -16.363142
v 24.926476 24.895863 -18.350330
v 24.926476 24.895863 -16.363140
v 27.552576 24.895863 -16.363142
v 27.552574 24.895863 -18.350332
v 30.178675 24.895863 -18.350332
v 30.178675 24.895863 -16.363142
v 32.804775 24.895863 -16.363144
v 32.804775 24.895863 -18.350334
v 44.622223 26.565432 -18.350338
v 44.622223 26.565432 -16.363148
v 23.613426 26.565432 -16.363140
v 23.613426 26.565432 -18.350330
v 34.117825 26.565432 -18.350334
v 34.117825 26.565432 -16.363144
v 39.370026 26.565432 -16.363146
v 39.370026 26.565432 -18.350336
v 41.996124 26.565432 -16.363146
v 41.996124 26.565432 -18.350336
v 43.309174 26.565432 -16.363148
v 43.309174 26.565432 -18.350338
v 40.683075 26.565432 -18.350336
v 40.683075 26.565432 -16.363146
v 36.743923 26.565432 -18.350334
v 36.743923 26.565432 -16.363144
v 38.056976 26.565432 -16.363146
v 38.056973 26.565432 -18.350336
v 35.430874 26.565432 -18.350334
v 35.430874 26.565432 -16.363144
v 28.865623 26.565432 -18.350332
v 28.865625 26.565432 -16.363142
v 31.491726 26.565432 -16.363144
v 31.491724 26.565432 -18.350334
v 26.239525 26.565432 -18.350332
v 26.239525 26.565432 -16.363142
v 24.926476 26.565432 -18.350330
v 24.926476 26.565432 -16.363140
v 27.552576 26.565432 -16.363142
v 27.552574 26.565432 -18.350332
v 30.178675 26.565432 -18.350332
v 30.178675 26.565432 -16.363142
v 32.804775 26.565432 -16.363144
v 32.804775 26.565432 -18.350334
vn 1.0000 0.0000 0.0000
vn 0.0000 0.0000 1.0000
vn -1.0000 0.0000 0.0000
vn 0.0000 0.0000 -1.0000
vn 0.0000 -1.0000 0.0000
vn 0.0000 1.0000 0.0000
s off
f 2//1 274//1 273//1
f 157//2 275//2 300//2
f 8//3 276//3 275//3
f 62//4 273//4 284//4
f 7//5 158//5 163//5
f 4//6 62//6 67//6
f 14//6 194//6 199//6
f 13//5 110//5 115//5
f 194//4 277//4 306//4
f 109//2 278//2 292//2
f 196//4 15//4 200//4
f 112//2 13//2 115//2
f 160//2 7//2 163//2
f 20//3 5//3 7//3
f 100//4 41//4 104//4
f 76//2 37//2 79//2
f 73//2 279//2 286//2
f 37//5 74//5 79//5
f 40//6 98//6 103//6
f 98//4 280//4 290//4
f 49//5 68//5 61//5
f 67//2 281//2 283//2
f 70//2 49//2 61//2
f 82//4 56//4 74//4
f 55//6 80//6 73//6
f 80//4 282//4 285//4
f 4//2 283//2 274//2
f 52//4 68//4 56//4
f 67//6 50//6 55//6
f 50//4 284//4 282//4
f 38//4 285//4 280//4
f 73//6 38//6 40//6
f 44//4 74//4 41//4
f 79//5 56//5 49//5
f 55//2 286//2 281//2
f 58//2 79//2 49//2
f 116//4 287//4 291//4
f 85//6 116//6 109//6
f 118//4 86//4 110//4
f 106//2 91//2 97//2
f 103//2 288//2 289//2
f 91//5 104//5 97//5
f 97//5 41//5 37//5
f 40//2 289//2 279//2
f 43//2 97//2 37//2
f 92//4 290//4 287//4
f 103//6 92//6 85//6
f 94//4 104//4 86//4
f 24//4 110//4 15//4
f 109//6 16//6 14//6
f 16//4 291//4 277//4
f 88//2 115//2 91//2
f 85//2 292//2 288//2
f 115//5 86//5 91//5
f 184//2 124//2 187//2
f 172//4 122//4 176//4
f 170//4 293//4 302//4
f 121//6 170//6 175//6
f 124//5 182//5 187//5
f 181//2 294//2 304//2
f 199//2 295//2 305//2
f 133//5 200//5 193//5
f 202//2 133//2 193//2
f 190//4 140//4 182//4
f 188//4 296//4 303//4
f 139//6 188//6 181//6
f 145//6 164//6 157//6
f 164//4 297//4 299//4
f 166//4 146//4 158//4
f 178//2 151//2 169//2
f 151//5 176//5 169//5
f 175//2 298//2 301//2
f 21//4 158//4 5//4
f 6//4 299//4 276//4
f 157//6 6//6 8//6
f 148//2 163//2 151//2
f 163//5 146//5 151//5
f 145//2 300//2 298//2
f 121//2 301//2 294//2
f 169//5 122//5 124//5
f 128//2 169//2 124//2
f 175//6 152//6 145//6
f 152//4 302//4 297//4
f 154//4 176//4 146//4
f 181//6 125//6 121//6
f 125//4 303//4 293//4
f 127//4 182//4 122//4
f 139//2 304//2 295//2
f 187//5 140//5 133//5
f 142//2 187//2 133//2
f 23//2 193//2 13//2
f 193//5 15//5 13//5
f 14//2 305//2 278//2
f 136//4 200//4 140//4
f 134//4 306//4 296//4
f 199//6 134//6 139//6
f 262//4 195//4 135//4
f 244//2 201//2 18//2
f 261//2 183//2 141//2
f 259//4 189//4 126//4
f 263//4 171//4 153//4
f 260//2 177//2 123//2
f 264//2 159//2 147//2
f 242//4 165//4 12//4
f 267//2 147//2 177//2
f 265//4 153//4 165//4
f 269//4 135//4 189//4
f 271//2 141//2 201//2
f 270//2 123//2 183//2
f 268//4 126//4 171//4
f 254//2 111//2 87//2
f 243//4 117//4 17//4
f 253//4 99//4 93//4
f 245//2 105//2 42//2
f 255//2 87//2 105//2
f 257//4 93//4 117//4
f 247//2 75//2 57//2
f 246//4 81//4 39//4
f 248//4 63//4 51//4
f 251//4 51//4 81//4
f 249//2 57//2 69//2
f 256//4 39//4 99//4
f 252//2 42//2 75//2
f 258//2 18//2 111//2
f 272//4 17//4 195//4
f 241//3 12//3 11//3
f 266//2 11//2 159//2
f 296//4 272//4 262//4
f 278//2 271//2 244//2
f 295//2 270//2 261//2
f 293//4 269//4 259//4
f 297//4 268//4 263//4
f 294//2 267//2 260//2
f 298//2 266//2 264//2
f 276//4 265//4 242//4
f 301//2 264//2 267//2
f 299//4 263//4 265//4
f 303//4 262//4 269//4
f 305//2 261//2 271//2
f 304//2 260//2 270//2
f 302//4 259//4 268//4
f 288//2 258//2 254//2
f 277//4 257//4 243//4
f 287//4 256//4 253//4
f 279//2 255//2 245//2
f 289//2 254//2 255//2
f 291//4 253//4 257//4
f 281//2 252//2 247//2
f 280//4 251//4 246//4
f 282//4 250//4 248//4
f 285//4 248//4 251//4
f 283//2 247//2 249//2
f 290//4 246//4 256//4
f 286//2 245//2 252//2
f 292//2 244//2 258//2
f 306//4 243//4 272//4
f 275//3 242//3 241//3
f 300//2 241//2 266//2
f 2//1 4//1 274//1
f 157//2 8//2 275//2
f 8//3 6//3 276//3
f 62//4 2//4 273//4
f 7//5 5//5 158//5
f 4//6 2//6 62//6
f 14//6 16//6 194//6
f 13//5 15//5 110//5
f 194//4 16//4 277//4
f 109//2 14//2 278//2
f 196//4 24//4 15//4
f 112//2 23//2 13//2
f 160//2 20//2 7//2
f 20//3 21//3 5//3
f 100//4 44//4 41//4
f 76//2 43//2 37//2
f 73//2 40//2 279//2
f 37//5 41//5 74//5
f 40//6 38//6 98//6
f 98//4 38//4 280//4
f 49//5 56//5 68//5
f 67//2 55//2 281//2
f 70//2 58//2 49//2
f 82//4 52//4 56//4
f 55//6 50//6 80//6
f 80//4 50//4 282//4
f 4//2 67//2 283//2
f 52//4 64//4 68//4
f 67//6 62//6 50//6
f 50//4 62//4 284//4
f 38//4 80//4 285//4
f 73//6 80//6 38//6
f 44//4 82//4 74//4
f 79//5 74//5 56//5
f 55//2 73//2 286//2
f 58//2 76//2 79//2
f 116//4 92//4 287//4
f 85//6 92//6 116//6
f 118//4 94//4 86//4
f 106//2 88//2 91//2
f 103//2 85//2 288//2
f 91//5 86//5 104//5
f 97//5 104//5 41//5
f 40//2 103//2 289//2
f 43//2 106//2 97//2
f 92//4 98//4 290//4
f 103//6 98//6 92//6
f 94//4 100//4 104//4
f 24//4 118//4 110//4
f 109//6 116//6 16//6
f 16//4 116//4 291//4
f 88//2 112//2 115//2
f 85//2 109//2 292//2
f 115//5 110//5 86//5
f 184//2 128//2 124//2
f 172//4 127//4 122//4
f 170//4 125//4 293//4
f 121//6 125//6 170//6
f 124//5 122//5 182//5
f 181//2 121//2 294//2
f 199//2 139//2 295//2
f 133//5 140//5 200//5
f 202//2 142//2 133//2
f 190//4 136//4 140//4
f 188//4 134//4 296//4
f 139//6 134//6 188//6
f 145//6 152//6 164//6
f 164//4 152//4 297//4
f 166//4 154//4 146//4
f 178//2 148//2 151//2
f 151//5 146//5 176//5
f 175//2 145//2 298//2
f 21//4 166//4 158//4
f 6//4 164//4 299//4
f 157//6 164//6 6//6
f 148//2 160//2 163//2
f 163//5 158//5 146//5
f 145//2 157//2 300//2
f 121//2 175//2 301//2
f 169//5 176//5 122//5
f 128//2 178//2 169//2
f 175//6 170//6 152//6
f 152//4 170//4 302//4
f 154//4 172//4 176//4
f 181//6 188//6 125//6
f 125//4 188//4 303//4
f 127//4 190//4 182//4
f 139//2 181//2 304//2
f 187//5 182//5 140//5
f 142//2 184//2 187//2
f 23//2 202//2 193//2
f 193//5 200//5 15//5
f 14//2 199//2 305//2
f 136//4 196//4 200//4
f 134//4 194//4 306//4
f 199//6 194//6 134//6
f 262//4 272//4 195//4
f 244//2 271//2 201//2
f 261//2 270//2 183//2
f 259//4 269//4 189//4
f 263//4 268//4 171//4
f 260//2 267//2 177//2
f 264//2 266//2 159//2
f 242//4 265//4 165//4
f 267//2 264//2 147//2
f 265//4 263//4 153//4
f 269//4 262//4 135//4
f 271//2 261//2 141//2
f 270//2 260//2 123//2
f 268//4 259//4 126//4
f 254//2 258//2 111//2
f 243//4 257//4 117//4
f 253//4 256//4 99//4
f 245//2 255//2 105//2
f 255//2 254//2 87//2
f 257//4 253//4 93//4
f 247//2 252//2 75//2
f 246//4 251//4 81//4
f 248//4 250//4 63//4
f 251//4 248//4 51//4
f 249//2 247//2 57//2
f 256//4 246//4 39//4
f 252//2 245//2 42//2
f 258//2 244//2 18//2
f 272//4 243//4 17//4
f 241//3 242//3 12//3
f 266//2 241//2 11//2
f 296//4 306//4 272//4
f 278//2 305//2 271//2
f 295//2 304//2 270//2
f 293//4 303//4 269//4
f 297//4 302//4 268//4
f 294//2 301//2 267//2
f 298//2 300//2 266//2
f 276//4 299//4 265//4
f 301//2 298//2 264//2
f 299//4 297//4 263//4
f 303//4 296//4 262//4
f 305//2 295//2 261//2
f 304//2 294//2 260//2
f 302//4 293//4 259//4
f 288//2 292//2 258//2
f 277//4 291//4 257//4
f 287//4 290//4 256//4
f 279//2 289//2 255//2
f 289//2 288//2 254//2
f 291//4 287//4 253//4
f 281//2 286//2 252//2
f 280//4 285//4 251//4
f 282//4 284//4 250//4
f 285//4 282//4 248//4
f 283//2 281//2 247//2
f 290//4 280//4 246//4
f 286//2 279//2 245//2
f 292//2 278//2 244//2
f 306//4 277//4 243//4
f 275//3 276//3 242//3
f 300//2 275//2 241//2
f 11//3 28//3 27//3
f 159//2 27//2 161//2
f 111//2 29//2 113//2
f 195//4 30//4 197//4
f 32//3 21//3 20//3
f 162//2 20//2 160//2
f 114//2 23//2 112//2
f 198//4 24//4 196//4
f 78//2 43//2 76//2
f 102//4 44//4 100//4
f 75//2 45//2 77//2
f 99//4 46//4 101//4
f 69//2 59//2 71//2
f 72//2 58//2 70//2
f 84//4 52//4 82//4
f 81//4 53//4 83//4
f 54//4 64//4 52//4
f 51//4 65//4 53//4
f 39//4 83//4 46//4
f 47//4 82//4 44//4
f 57//2 77//2 59//2
f 60//2 76//2 58//2
f 117//4 95//4 119//4
f 120//4 94//4 118//4
f 108//2 88//2 106//2
f 105//2 89//2 107//2
f 42//2 107//2 45//2
f 48//2 106//2 43//2
f 93//4 101//4 95//4
f 96//4 100//4 94//4
f 35//4 118//4 24//4
f 17//4 119//4 30//4
f 90//2 112//2 88//2
f 87//2 113//2 89//2
f 174//4 127//4 172//4
f 186//2 128//2 184//2
f 171//4 129//4 173//4
f 183//2 130//2 185//2
f 201//2 143//2 203//2
f 204//2 142//2 202//2
f 192//4 136//4 190//4
f 189//4 137//4 191//4
f 165//4 155//4 167//4
f 168//4 154//4 166//4
f 180//2 148//2 178//2
f 177//2 149//2 179//2
f 33//4 166//4 21//4
f 12//4 167//4 28//4
f 150//2 160//2 148//2
f 147//2 161//2 149//2
f 123//2 179//2 130//2
f 131//2 178//2 128//2
f 153//4 173//4 155//4
f 156//4 172//4 154//4
f 126//4 191//4 129//4
f 132//4 190//4 127//4
f 141//2 185//2 143//2
f 144//2 184//2 142//2
f 34//2 202//2 23//2
f 18//2 203//2 29//2
f 138//4 196//4 136//4
f 135//4 197//4 137//4
f 11//3 12//3 28//3
f 159//2 11//2 27//2
f 111//2 18//2 29//2
f 195//4 17//4 30//4
f 32//3 33//3 21//3
f 162//2 32//2 20//2
f 114//2 34//2 23//2
f 198//4 35//4 24//4
f 78//2 48//2 43//2
f 102//4 47//4 44//4
f 75//2 42//2 45//2
f 99//4 39//4 46//4
f 69//2 57//2 59//2
f 72//2 60//2 58//2
f 84//4 54//4 52//4
f 81//4 51//4 53//4
f 54//4 66//4 64//4
f 51//4 63//4 65//4
f 39//4 81//4 83//4
f 47//4 84//4 82//4
f 57//2 75//2 77//2
f 60//2 78//2 76//2
f 117//4 93//4 95//4
f 120//4 96//4 94//4
f 108//2 90//2 88//2
f 105//2 87//2 89//2
f 42//2 105//2 107//2
f 48//2 108//2 106//2
f 93//4 99//4 101//4
f 96//4 102//4 100//4
f 35//4 120//4 118//4
f 17//4 117//4 119//4
f 90//2 114//2 112//2
f 87//2 111//2 113//2
f 174//4 132//4 127//4
f 186//2 131//2 128//2
f 171//4 126//4 129//4
f 183//2 123//2 130//2
f 201//2 141//2 143//2
f 204//2 144//2 142//2
f 192//4 138//4 136//4
f 189//4 135//4 137//4
f 165//4 153//4 155//4
f 168//4 156//4 154//4
f 180//2 150//2 148//2
f 177//2 147//2 149//2
f 33//4 168//4 166//4
f 12//4 165//4 167//4
f 150//2 162//2 160//2
f 147//2 159//2 161//2
f 123//2 177//2 179//2
f 131//2 180//2 178//2
f 153//4 171//4 173//4
f 156//4 174//4 172//4
f 126//4 189//4 191//4
f 132//4 192//4 190//4
f 141//2 183//2 185//2
f 144//2 186//2 184//2
f 34//2 204//2 202//2
f 18//2 201//2 203//2
f 138//4 198//4 196//4
f 135//4 195//4 197//4
f 197//4 210//4 238//4
f 27//3 208//3 207//3
f 101//4 211//4 222//4
f 83//4 214//4 217//4
f 59//2 218//2 213//2
f 119//4 219//4 223//4
f 45//2 221//2 212//2
f 89//2 224//2 220//2
f 173//4 226//4 234//4
f 191//4 228//4 235//4
f 167//4 229//4 231//4
f 149//2 232//2 230//2
f 130//2 233//2 225//2
f 143//2 236//2 227//2
f 29//2 237//2 209//2
f 228//4 198//4 138//4
f 226//4 192//4 132//4
f 229//4 174//4 156//4
f 208//4 168//4 33//4
f 233//2 150//2 180//2
f 237//2 144//2 204//2
f 236//2 131//2 186//2
f 210//4 120//4 35//4
f 219//4 102//4 96//4
f 221//2 90//2 108//2
f 211//4 84//4 47//4
f 214//4 66//4 54//4
f 215//2 60//2 72//2
f 218//2 48//2 78//2
f 232//2 32//2 162//2
f 224//2 34//2 114//2
f 197//4 30//4 210//4
f 27//3 28//3 208//3
f 101//4 46//4 211//4
f 83//4 53//4 214//4
f 59//2 77//2 218//2
f 119//4 95//4 219//4
f 45//2 107//2 221//2
f 89//2 113//2 224//2
f 173//4 129//4 226//4
f 191//4 137//4 228//4
f 167//4 155//4 229//4
f 149//2 161//2 232//2
f 130//2 179//2 233//2
f 143//2 185//2 236//2
f 29//2 203//2 237//2
f 228//4 238//4 198//4
f 226//4 235//4 192//4
f 229//4 234//4 174//4
f 208//4 231//4 168//4
f 233//2 230//2 150//2
f 237//2 227//2 144//2
f 236//2 225//2 131//2
f 210//4 223//4 120//4
f 219//4 222//4 102//4
f 221//2 220//2 90//2
f 211//4 217//4 84//4
f 214//4 216//4 66//4
f 215//2 213//2 60//2
f 218//2 212//2 48//2
f 232//2 207//2 32//2
f 224//2 209//2 34//2
f 63//4 25//4 65//4
f 9//1 26//1 25//1
f 22//1 3//1 1//1
f 64//4 1//4 68//4
f 113//2 209//2 224//2
f 25//1 206//1 205//1
f 161//2 207//2 232//2
f 65//4 205//4 216//4
f 66//4 22//4 64//4
f 36//1 19//1 22//1
f 77//2 212//2 218//2
f 71//2 213//2 215//2
f 31//2 70//2 19//2
f 26//2 215//2 206//2
f 19//2 61//2 3//2
f 61//5 1//5 3//5
f 10//2 71//2 26//2
f 53//4 216//4 214//4
f 46//4 217//4 211//4
f 107//2 220//2 221//2
f 95//4 222//4 219//4
f 30//4 223//4 210//4
f 185//2 225//2 236//2
f 203//2 227//2 237//2
f 179//2 230//2 233//2
f 28//4 231//4 208//4
f 155//4 234//4 229//4
f 129//4 235//4 226//4
f 137//4 238//4 228//4
f 209//2 204//2 34//2
f 227//2 186//2 144//2
f 225//2 180//2 131//2
f 230//2 162//2 150//2
f 231//4 156//4 168//4
f 235//4 138//4 192//4
f 234//4 132//4 174//4
f 220//2 114//2 90//2
f 212//2 108//2 48//2
f 223//4 96//4 120//4
f 213//2 78//2 60//2
f 206//2 72//2 31//2
f 217//4 54//4 84//4
f 222//4 47//4 102//4
f 216//4 36//4 66//4
f 207//3 33//3 32//3
f 205//1 31//1 36//1
f 238//4 35//4 198//4
f 240//2 69//2 10//2
f 250//4 9//4 63//4
f 239//1 10//1 9//1
f 274//2 249//2 240//2
f 284//4 239//4 250//4
f 273//1 240//1 239//1
f 63//4 9//4 25//4
f 9//1 10//1 26//1
f 22//1 19//1 3//1
f 64//4 22//4 1//4
f 113//2 29//2 209//2
f 25//1 26//1 206//1
f 161//2 27//2 207//2
f 65//4 25//4 205//4
f 66//4 36//4 22//4
f 36//1 31//1 19//1
f 77//2 45//2 212//2
f 71//2 59//2 213//2
f 31//2 72//2 70//2
f 26//2 71//2 215//2
f 19//2 70//2 61//2
f 61//5 68//5 1//5
f 10//2 69//2 71//2
f 53//4 65//4 216//4
f 46//4 83//4 217//4
f 107//2 89//2 220//2
f 95//4 101//4 222//4
f 30//4 119//4 223//4
f 185//2 130//2 225//2
f 203//2 143//2 227//2
f 179//2 149//2 230//2
f 28//4 167//4 231//4
f 155//4 173//4 234//4
f 129//4 191//4 235//4
f 137//4 197//4 238//4
f 209//2 237//2 204//2
f 227//2 236//2 186//2
f 225//2 233//2 180//2
f 230//2 232//2 162//2
f 231//4 229//4 156//4
f 235//4 228//4 138//4
f 234//4 226//4 132//4
f 220//2 224//2 114//2
f 212//2 221//2 108//2
f 223//4 219//4 96//4
f 213//2 218//2 78//2
f 206//2 215//2 72//2
f 217//4 214//4 54//4
f 222//4 211//4 47//4
f 216//4 205//4 36//4
f 207//3 208//3 33//3
f 205//1 206//1 31//1
f 238//4 210//4 35//4
f 240//2 249//2 69//2
f 250//4 239//4 9//4
f 239//1 240//1 10//1
f 274//2 283//2 249//2
f 284//4 273//4 239//4
f 273//1 274//1 240//1
