# Blender v3.0.0 OBJ File: 'fnaf 1 map without ceiling.blend'
# www.blender.org
o Cube.234_Cube.046
v -21.476902 -16.885174 64.118820
v -21.476902 28.642036 64.118820
v -22.700443 -16.885174 64.160027
v -22.700443 28.642036 64.160027
v -21.792896 -16.885174 51.065884
v -21.792896 28.642036 51.065884
v -23.016438 -16.885174 51.107086
v -23.016438 28.642036 51.107086
vn 0.0336 0.0000 0.9994
vn -0.9997 0.0000 0.0242
vn -0.0336 0.0000 -0.9994
vn 0.9997 0.0000 -0.0242
vn 0.0000 -1.0000 0.0000
vn 0.0000 1.0000 0.0000
vn 0.0337 0.0000 0.9994
vn -0.0337 0.0000 -0.9994
s off
f 2//1 3//1 1//1
f 4//2 7//2 3//2
f 8//3 5//3 7//3
f 6//4 1//4 5//4
f 7//5 1//5 3//5
f 4//6 6//6 8//6
f 2//7 4//7 3//7
f 4//2 8//2 7//2
f 8//8 6//8 5//8
f 6//4 2//4 1//4
f 7//5 5//5 1//5
f 4//6 2//6 6//6
