# Blender v3.1.2 OBJ File: 'fnaf 1 map without ceiling.blend'
# www.blender.org
mtllib badan_kue.mtl
o Cylinder.036_Cylinder.004
v -84.369499 1.806641 23.593113
v -84.290657 2.424339 23.593113
v -84.379898 1.806859 23.717556
v -84.302322 2.424583 23.732708
v -84.410683 1.807504 23.837215
v -84.336861 2.425306 23.866936
v -84.460678 1.808551 23.947495
v -84.392937 2.426481 23.990643
v -84.527962 1.809960 24.044155
v -84.468414 2.428062 24.099072
v -84.609947 1.811678 24.123482
v -84.560387 2.429989 24.188057
v -84.703484 1.813637 24.182426
v -84.665306 2.432187 24.254179
v -84.804977 1.815763 24.218725
v -84.779160 2.434572 24.294897
v -84.910530 1.817975 24.230982
v -84.897560 2.437053 24.308645
v -85.016075 1.820186 24.218725
v -85.015961 2.439533 24.294897
v -85.117569 1.822312 24.182426
v -85.129807 2.441918 24.254179
v -85.211105 1.824272 24.123482
v -85.234734 2.444116 24.188057
v -85.293091 1.825989 24.044155
v -85.326698 2.446043 24.099072
v -85.360374 1.827399 23.947495
v -85.402176 2.447624 23.990643
v -85.410370 1.828446 23.837215
v -85.458260 2.448799 23.866936
v -85.441154 1.829091 23.717556
v -85.492798 2.449523 23.732706
v -85.451553 1.829309 23.593113
v -85.504456 2.449767 23.593113
v -85.441154 1.829091 23.468672
v -85.492798 2.449523 23.453520
v -85.410370 1.828446 23.349012
v -85.458260 2.448799 23.319292
v -85.360374 1.827399 23.238733
v -85.402176 2.447624 23.195585
v -85.293091 1.825989 23.142073
v -85.326698 2.446043 23.087156
v -85.211105 1.824272 23.062746
v -85.234734 2.444116 22.998171
v -85.117569 1.822312 23.003801
v -85.129807 2.441918 22.932049
v -85.016075 1.820186 22.967503
v -85.015961 2.439533 22.891331
v -84.910530 1.817975 22.955246
v -84.897560 2.437053 22.877583
v -84.804977 1.815763 22.967503
v -84.779160 2.434572 22.891331
v -84.703484 1.813637 23.003801
v -84.665306 2.432187 22.932049
v -84.609947 1.811678 23.062746
v -84.560379 2.429989 22.998171
v -84.527962 1.809960 23.142075
v -84.468414 2.428062 23.087158
v -84.460678 1.808551 23.238735
v -84.392937 2.426481 23.195587
v -84.410683 1.807503 23.349012
v -84.336853 2.425306 23.319292
v -84.379898 1.806859 23.468674
v -84.302322 2.424583 23.453522
v -84.465523 2.428002 23.694433
v -84.457062 2.427824 23.593113
v -84.490593 2.428527 23.791859
v -84.531296 2.429379 23.881647
v -84.586075 2.430527 23.960348
v -84.652832 2.431926 24.024937
v -84.728989 2.433521 24.072929
v -84.811623 2.435252 24.102482
v -84.897560 2.437052 24.112461
v -84.983498 2.438853 24.102482
v -85.066132 2.440584 24.072929
v -85.142288 2.442179 24.024937
v -85.209038 2.443578 23.960348
v -85.263817 2.444726 23.881647
v -85.304527 2.445578 23.791859
v -85.329590 2.446103 23.694433
v -85.338058 2.446281 23.593113
v -85.329590 2.446103 23.491795
v -85.304527 2.445578 23.394367
v -85.263817 2.444726 23.304579
v -85.209038 2.443578 23.225880
v -85.142288 2.442179 23.161291
v -85.066132 2.440584 23.113298
v -84.983498 2.438853 23.083746
v -84.897560 2.437052 23.073767
v -84.811623 2.435252 23.083746
v -84.728989 2.433521 23.113298
v -84.652832 2.431926 23.161293
v -84.586075 2.430527 23.225880
v -84.531296 2.429379 23.304581
v -84.490585 2.428527 23.394369
v -84.465523 2.428002 23.491795
v -84.466621 2.375643 23.694433
v -84.458153 2.375466 23.593113
v -84.491684 2.376169 23.791859
v -84.532394 2.377021 23.881647
v -84.587173 2.378169 23.960348
v -84.653923 2.379567 24.024937
v -84.730080 2.381163 24.072929
v -84.812714 2.382894 24.102482
v -84.898651 2.384694 24.112461
v -84.984589 2.386495 24.102482
v -85.067230 2.388226 24.072929
v -85.143387 2.389821 24.024937
v -85.210136 2.391220 23.960348
v -85.264915 2.392367 23.881647
v -85.305626 2.393220 23.791859
v -85.330688 2.393745 23.694433
v -85.339157 2.393923 23.593113
v -85.330688 2.393745 23.491795
v -85.305626 2.393220 23.394367
v -85.264915 2.392367 23.304579
v -85.210136 2.391220 23.225880
v -85.143379 2.389821 23.161291
v -85.067223 2.388226 23.113298
v -84.984589 2.386495 23.083746
v -84.898651 2.384694 23.073767
v -84.812714 2.382894 23.083746
v -84.730080 2.381163 23.113298
v -84.653923 2.379567 23.161293
v -84.587173 2.378169 23.225880
v -84.532394 2.377021 23.304581
v -84.491684 2.376169 23.394369
v -84.466621 2.375643 23.491795
v -84.330078 2.115490 23.593113
v -84.341110 2.115721 23.725132
v -84.373772 2.116405 23.852076
v -84.426811 2.117516 23.969069
v -84.498192 2.119012 24.071613
v -84.585167 2.120834 24.155769
v -84.684395 2.122912 24.218302
v -84.792068 2.125168 24.256811
v -84.904045 2.127514 24.269814
v -85.016014 2.129860 24.256811
v -85.123688 2.132115 24.218302
v -85.222916 2.134194 24.155769
v -85.309898 2.136016 24.071613
v -85.381271 2.137512 23.969069
v -85.434311 2.138623 23.852076
v -85.466972 2.139307 23.725132
v -85.478004 2.139538 23.593113
v -85.466972 2.139307 23.461096
v -85.434311 2.138623 23.334152
v -85.381271 2.137512 23.217159
v -85.309891 2.136016 23.114614
v -85.222916 2.134194 23.030458
v -85.123688 2.132115 22.967924
v -85.016014 2.129860 22.929417
v -84.904045 2.127514 22.916414
v -84.792068 2.125168 22.929417
v -84.684395 2.122912 22.967926
v -84.585167 2.120834 23.030458
v -84.498192 2.119012 23.114616
v -84.426811 2.117516 23.217161
v -84.373772 2.116405 23.334152
v -84.341110 2.115721 23.461098
v -84.310371 2.269914 23.593113
v -84.321716 2.270152 23.728920
v -84.355316 2.270856 23.859505
v -84.409874 2.271999 23.979855
v -84.483307 2.273537 24.085342
v -84.572777 2.275411 24.171913
v -84.674850 2.277550 24.236240
v -84.785614 2.279870 24.275854
v -84.900803 2.282283 24.289230
v -85.015984 2.284697 24.275854
v -85.126747 2.287017 24.236240
v -85.228828 2.289155 24.171913
v -85.318298 2.291030 24.085342
v -85.391724 2.292568 23.979855
v -85.446289 2.293711 23.859505
v -85.479889 2.294415 23.728918
v -85.491234 2.294652 23.593113
v -85.479881 2.294415 23.457308
v -85.446289 2.293711 23.326721
v -85.391724 2.292568 23.206373
v -85.318298 2.291030 23.100885
v -85.228828 2.289155 23.014315
v -85.126747 2.287017 22.949987
v -85.015984 2.284697 22.910374
v -84.900803 2.282283 22.896999
v -84.785614 2.279870 22.910374
v -84.674850 2.277550 22.949987
v -84.572777 2.275411 23.014315
v -84.483299 2.273537 23.100887
v -84.409874 2.271999 23.206373
v -84.355316 2.270856 23.326723
v -84.321716 2.270152 23.457310
v -84.360504 1.961289 23.721344
v -84.392227 1.961954 23.844645
v -84.443748 1.963033 23.958281
v -84.513077 1.964486 24.057884
v -84.597557 1.966256 24.139626
v -84.693939 1.968275 24.200365
v -84.798523 1.970466 24.237768
v -84.907288 1.972744 24.250397
v -85.016045 1.975023 24.237768
v -85.120628 1.977214 24.200365
v -85.217010 1.979233 24.139626
v -85.301491 1.981003 24.057884
v -85.370827 1.982455 23.958281
v -85.422340 1.983534 23.844645
v -85.454063 1.984199 23.721344
v -85.464775 1.984424 23.593113
v -85.454063 1.984199 23.464884
v -85.422340 1.983534 23.341581
v -85.370827 1.982455 23.227947
v -85.301491 1.981003 23.128344
v -85.217010 1.979233 23.046602
v -85.120628 1.977214 22.985863
v -85.016045 1.975023 22.948460
v -84.907288 1.972744 22.935831
v -84.798523 1.970466 22.948460
v -84.693939 1.968275 22.985863
v -84.597557 1.966256 23.046602
v -84.513077 1.964486 23.128345
v -84.443748 1.963033 23.227947
v -84.392227 1.961954 23.341583
v -84.360504 1.961289 23.464886
v -84.349792 1.961065 23.593113
vn 0.7633 0.6334 0.1272
vn 0.9352 -0.1276 0.3304
vn 0.9779 -0.1269 0.1659
vn 0.6766 0.6320 0.3779
vn 0.7540 -0.1298 0.6439
vn 0.8615 -0.1287 0.4912
vn 0.4867 0.6307 0.6045
vn 0.4317 -0.1302 0.8926
vn 0.6106 -0.1305 0.7811
vn 0.1884 0.6324 0.7514
vn -0.0026 -0.1244 0.9922
vn 0.2231 -0.1283 0.9663
vn -0.1617 0.6397 0.7514
vn -0.4367 -0.1120 0.8926
vn -0.2283 -0.1188 0.9663
vn -0.4598 0.6505 0.6044
vn -0.7588 -0.0982 0.6438
vn -0.6155 -0.1049 0.7811
vn -0.6495 0.6598 0.3779
vn -0.9397 -0.0884 0.3304
vn -0.8661 -0.0926 0.4912
vn -0.7361 0.6648 0.1272
vn -0.9964 -0.0850 -0.0000
vn -0.9824 -0.0858 0.1659
vn -0.7361 0.6648 -0.1271
vn -0.9397 -0.0884 -0.3304
vn -0.9824 -0.0858 -0.1659
vn -0.6495 0.6598 -0.3779
vn -0.7588 -0.0982 -0.6439
vn -0.8661 -0.0926 -0.4912
vn -0.4598 0.6505 -0.6045
vn -0.4367 -0.1120 -0.8926
vn -0.6155 -0.1048 -0.7811
vn -0.1617 0.6397 -0.7514
vn -0.0026 -0.1244 -0.9922
vn -0.2283 -0.1188 -0.9663
vn 0.1884 0.6324 -0.7514
vn 0.4317 -0.1302 -0.8926
vn 0.2231 -0.1283 -0.9663
vn 0.4867 0.6307 -0.6045
vn 0.7540 -0.1298 -0.6439
vn 0.6106 -0.1305 -0.7811
vn 0.8615 -0.1287 -0.4912
vn 0.7316 0.6328 -0.2536
vn 0.9352 -0.1277 -0.3304
vn 0.7633 0.6334 -0.1272
vn 0.9920 -0.1266 -0.0000
vn 0.9780 -0.1269 -0.1659
vn -0.6928 -0.7120 0.1144
vn -0.1719 -0.7229 -0.6692
vn 0.6624 -0.7403 -0.1144
vn -0.1392 0.7367 0.6618
vn -0.3050 0.6899 0.6565
vn -0.2824 0.7386 0.6121
vn 0.6625 0.7135 -0.2281
vn -0.7044 0.6629 0.2536
vn -0.6719 0.7406 -0.0000
vn 0.7737 0.6336 -0.0000
vn 0.3131 0.7261 -0.6121
vn -0.3227 0.6450 0.6927
vn -0.5055 0.7403 0.4433
vn 0.5957 0.6312 -0.4967
vn -0.2824 0.7386 -0.6122
vn 0.3495 0.6309 0.6927
vn 0.0154 0.7338 0.6791
vn 0.0133 0.6354 -0.7721
vn -0.6320 0.7406 -0.2281
vn 0.7316 0.6329 0.2536
vn -0.5687 0.6556 -0.4967
vn 0.6109 0.7156 0.3387
vn 0.5360 0.7185 0.4433
vn -0.7464 0.6654 -0.0000
vn 0.6926 0.7121 -0.1147
vn 0.7024 0.7117 0.0000
vn -0.5687 0.6556 0.4967
vn 0.4365 0.7221 -0.5367
vn 0.5360 0.7185 -0.4433
vn -0.5804 0.7405 0.3387
vn -0.6320 0.7406 0.2281
vn 0.0154 0.7338 -0.6791
vn 0.0133 0.6354 0.7721
vn 0.3495 0.6309 -0.6927
vn 0.5957 0.6312 0.4967
vn -0.5804 0.7405 -0.3387
vn -0.5055 0.7403 -0.4432
vn 0.3131 0.7262 0.6121
vn -0.3227 0.6450 -0.6927
vn 0.6625 0.7135 0.2281
vn -0.7044 0.6629 -0.2536
vn 0.6986 0.6736 0.2412
vn 0.3337 0.6765 -0.6565
vn 0.6109 0.7155 -0.3387
vn 0.6986 0.6736 -0.2412
vn -0.4059 0.7397 0.5367
vn -0.5397 0.6974 0.4716
vn -0.6620 0.7406 -0.1146
vn -0.6698 0.7023 -0.2412
vn 0.7392 0.6735 0.0000
vn -0.6698 0.7023 0.2412
vn -0.5397 0.6974 -0.4716
vn 0.6926 0.7121 0.1146
vn -0.6621 0.7406 0.1146
vn -0.7103 0.7039 -0.0000
vn -0.4059 0.7397 -0.5367
vn -0.3051 0.6898 -0.6566
vn 0.5684 0.6742 0.4716
vn -0.1392 0.7367 -0.6618
vn 0.0143 0.6819 -0.7313
vn 0.4365 0.7221 0.5367
vn 0.3336 0.6765 0.6565
vn 0.1699 0.7302 -0.6618
vn 0.1699 0.7302 0.6618
vn 0.0143 0.6819 0.7313
vn 0.5684 0.6742 -0.4716
vn 0.9352 -0.1276 -0.3304
vn 0.7541 -0.1298 -0.6439
vn 0.4316 -0.1302 -0.8926
vn -0.6155 -0.1049 -0.7811
vn -0.8661 -0.0925 -0.4912
vn -0.9397 -0.0883 -0.3304
vn -0.8661 -0.0925 0.4912
vn -0.7588 -0.0981 0.6439
vn -0.7588 -0.0982 0.6439
vn 0.8615 -0.1288 0.4912
vn 0.7541 -0.1299 0.6438
vn 0.9352 -0.1277 0.3304
vn 0.7540 -0.1299 -0.6439
vn -0.6155 -0.1048 0.7811
vn 0.6330 -0.7398 0.2280
vn 0.6624 -0.7404 0.1144
vn 0.5086 -0.7372 0.4448
vn 0.5824 -0.7388 0.3391
vn 0.2860 -0.7326 0.6177
vn 0.4097 -0.7352 0.5401
vn -0.0152 -0.7262 0.6873
vn 0.1415 -0.7295 0.6692
vn -0.3164 -0.7199 0.6177
vn -0.1719 -0.7229 0.6692
vn -0.5390 -0.7153 0.4448
vn -0.4401 -0.7174 0.5401
vn -0.6635 -0.7126 0.2280
vn -0.6129 -0.7137 0.3391
vn -0.7024 -0.7118 -0.0000
vn -0.6635 -0.7126 -0.2280
vn -0.6928 -0.7120 -0.1144
vn -0.5390 -0.7153 -0.4448
vn -0.6129 -0.7137 -0.3391
vn -0.3164 -0.7199 -0.6177
vn -0.4401 -0.7174 -0.5401
vn -0.0152 -0.7262 -0.6873
vn 0.2860 -0.7326 -0.6177
vn 0.1415 -0.7295 -0.6692
vn 0.5085 -0.7373 -0.4448
vn 0.4097 -0.7352 -0.5401
vn 0.6330 -0.7398 -0.2280
vn 0.5824 -0.7388 -0.3391
vn 0.6720 -0.7405 -0.0000
vn 0.6766 0.6320 -0.3779
vn -0.1520 0.6857 0.7118
vn -0.7003 0.7035 -0.1210
vn -0.7003 0.7035 0.1210
vn -0.6170 0.7003 0.3590
vn -0.4357 0.6938 0.5734
vn 0.1805 0.6788 0.7118
vn 0.4643 0.6750 0.5734
vn 0.6458 0.6738 0.3591
vn 0.7292 0.6735 0.1210
vn 0.7292 0.6735 -0.1210
vn 0.6458 0.6738 -0.3591
vn 0.4643 0.6751 -0.5733
vn 0.1805 0.6788 -0.7118
vn -0.1520 0.6857 -0.7118
vn -0.4356 0.6939 -0.5733
vn -0.6170 0.7003 -0.3590
usemtl Material.032
s 1
f 4//1 163//2 162//3
f 8//4 165//5 164//6
f 12//7 167//8 166//9
f 16//10 169//11 168//12
f 20//13 171//14 170//15
f 24//16 173//17 172//18
f 28//19 175//20 174//21
f 32//22 177//23 176//24
f 36//25 179//26 178//27
f 40//28 181//29 180//30
f 44//31 183//32 182//33
f 48//34 185//35 184//36
f 52//37 187//38 186//39
f 56//40 189//41 188//42
f 190//43 62//44 191//45
f 64//46 161//47 192//48
f 31//49 47//50 63//51
f 90//52 123//53 91//54
f 28//19 79//55 30//56
f 64//46 66//57 2//58
f 20//13 75//59 22//60
f 56//40 93//61 58//62
f 12//7 71//63 14//64
f 48//34 89//65 50//66
f 4//1 67//67 6//68
f 42//69 84//70 85//71
f 34//72 80//73 81//74
f 26//75 76//76 77//77
f 62//44 94//78 95//79
f 16//10 73//80 18//81
f 54//82 90//52 91//54
f 10//83 68//84 69//85
f 44//31 87//86 46//87
f 36//25 83//88 38//89
f 123//53 115//90 107//91
f 78//92 111//93 79//55
f 92//94 125//95 93//61
f 65//96 99//97 67//67
f 80//73 113//98 81//74
f 94//78 127//99 95//79
f 68//84 101//100 69//85
f 82//101 115//90 83//88
f 96//102 98//103 66//57
f 70//104 103//105 71//63
f 84//70 117//106 85//71
f 72//107 105//108 73//80
f 86//109 119//110 87//86
f 74//111 107//91 75//59
f 88//112 121//113 89//65
f 76//76 109//114 77//77
f 160//48 224//47 223//48
f 221//43 159//115 222//115
f 156//42 220//116 219//42
f 154//39 218//117 217//39
f 152//36 216//35 215//36
f 150//118 214//32 213//33
f 148//119 212//29 211//119
f 146//27 210//120 209//27
f 144//24 208//23 207//24
f 142//121 206//20 205//121
f 203//18 141//122 204//123
f 138//15 202//14 201//15
f 136//12 200//11 199//12
f 134//9 198//8 197//9
f 132//124 196//125 195//124
f 130//3 194//126 193//3
f 192//48 129//47 160//48
f 190//43 159//115 158//43
f 188//42 157//127 156//42
f 186//39 155//117 154//39
f 184//36 153//35 152//36
f 182//33 151//32 150//118
f 180//30 149//29 148//119
f 178//27 147//26 146//27
f 176//24 145//23 144//24
f 174//21 143//20 142//121
f 172//18 141//122 140//128
f 138//15 171//14 139//14
f 168//12 137//11 136//12
f 166//9 135//8 134//9
f 164//6 133//5 132//124
f 162//3 131//2 130//3
f 193//3 5//129 3//130
f 195//124 9//131 7//132
f 197//9 13//133 11//134
f 199//12 17//135 15//136
f 201//15 21//137 19//138
f 203//18 25//139 23//140
f 205//121 29//141 27//142
f 207//24 33//143 31//49
f 209//27 37//144 35//145
f 211//119 41//146 39//147
f 213//33 45//148 43//149
f 215//36 49//150 47//50
f 217//39 53//151 51//152
f 219//42 57//153 55//154
f 221//43 61//155 59//156
f 223//48 1//157 63//51
f 4//1 6//68 163//2
f 8//4 10//83 165//5
f 12//7 14//64 167//8
f 16//10 18//81 169//11
f 20//13 22//60 171//14
f 24//16 26//75 173//17
f 28//19 30//56 175//20
f 32//22 34//72 177//23
f 36//25 38//89 179//26
f 40//28 42//69 181//29
f 44//31 46//87 183//32
f 48//34 50//66 185//35
f 52//37 54//82 187//38
f 56//40 58//62 189//41
f 190//43 60//158 62//44
f 64//46 2//58 161//47
f 63//51 1//157 3//130
f 3//130 5//129 7//132
f 7//132 9//131 15//136
f 9//131 11//134 15//136
f 11//134 13//133 15//136
f 15//136 17//135 19//138
f 19//138 21//137 23//140
f 23//140 25//139 27//142
f 27//142 29//141 31//49
f 31//49 33//143 35//145
f 35//145 37//144 39//147
f 39//147 41//146 47//50
f 41//146 43//149 47//50
f 43//149 45//148 47//50
f 47//50 49//150 51//152
f 51//152 53//151 47//50
f 53//151 55//154 47//50
f 55//154 57//153 63//51
f 57//153 59//156 63//51
f 59//156 61//155 63//51
f 63//51 3//130 15//136
f 3//130 7//132 15//136
f 15//136 19//138 23//140
f 23//140 27//142 15//136
f 27//142 31//49 15//136
f 31//49 35//145 47//50
f 35//145 39//147 47//50
f 47//50 55//154 63//51
f 63//51 15//136 31//49
f 90//52 122//159 123//53
f 28//19 78//92 79//55
f 64//46 96//102 66//57
f 20//13 74//111 75//59
f 56//40 92//94 93//61
f 12//7 70//104 71//63
f 48//34 88//112 89//65
f 4//1 65//96 67//67
f 42//69 40//28 84//70
f 34//72 32//22 80//73
f 26//75 24//16 76//76
f 62//44 60//158 94//78
f 16//10 72//107 73//80
f 54//82 52//37 90//52
f 10//83 8//4 68//84
f 44//31 86//109 87//86
f 36//25 82//101 83//88
f 99//97 97//160 127//99
f 97//160 98//103 127//99
f 98//103 128//161 127//99
f 127//99 126//162 125//95
f 125//95 124//163 123//53
f 123//53 122//159 121//113
f 121//113 120//164 123//53
f 120//164 119//110 123//53
f 119//110 118//165 117//106
f 117//106 116//166 115//90
f 115//90 114//167 113//98
f 113//98 112//168 111//93
f 111//93 110//169 107//91
f 110//169 109//114 107//91
f 109//114 108//170 107//91
f 107//91 106//171 103//105
f 106//171 105//108 103//105
f 105//108 104//172 103//105
f 103//105 102//173 101//100
f 101//100 100//174 99//97
f 127//99 125//95 99//97
f 125//95 123//53 99//97
f 119//110 117//106 123//53
f 117//106 115//90 123//53
f 115//90 113//98 107//91
f 113//98 111//93 107//91
f 103//105 101//100 107//91
f 101//100 99//97 107//91
f 99//97 123//53 107//91
f 78//92 110//169 111//93
f 92//94 124//163 125//95
f 65//96 97//160 99//97
f 80//73 112//168 113//98
f 94//78 126//162 127//99
f 68//84 100//174 101//100
f 82//101 114//167 115//90
f 96//102 128//161 98//103
f 70//104 102//173 103//105
f 84//70 116//166 117//106
f 72//107 104//172 105//108
f 86//109 118//165 119//110
f 74//111 106//171 107//91
f 88//112 120//164 121//113
f 76//76 108//170 109//114
f 160//48 129//47 224//47
f 221//43 158//43 159//115
f 156//42 157//127 220//116
f 154//39 155//117 218//117
f 152//36 153//35 216//35
f 150//118 151//32 214//32
f 148//119 149//29 212//29
f 146//27 147//26 210//120
f 144//24 145//23 208//23
f 142//121 143//20 206//20
f 203//18 140//128 141//122
f 138//15 139//14 202//14
f 136//12 137//11 200//11
f 134//9 135//8 198//8
f 132//124 133//5 196//125
f 130//3 131//2 194//126
f 192//48 161//47 129//47
f 190//43 191//45 159//115
f 188//42 189//41 157//127
f 186//39 187//38 155//117
f 184//36 185//35 153//35
f 182//33 183//32 151//32
f 180//30 181//29 149//29
f 178//27 179//26 147//26
f 176//24 177//23 145//23
f 174//21 175//20 143//20
f 172//18 173//17 141//122
f 138//15 170//15 171//14
f 168//12 169//11 137//11
f 166//9 167//8 135//8
f 164//6 165//5 133//5
f 162//3 163//2 131//2
f 193//3 194//126 5//129
f 195//124 196//125 9//131
f 197//9 198//8 13//133
f 199//12 200//11 17//135
f 201//15 202//14 21//137
f 203//18 204//123 25//139
f 205//121 206//20 29//141
f 207//24 208//23 33//143
f 209//27 210//120 37//144
f 211//119 212//29 41//146
f 213//33 214//32 45//148
f 215//36 216//35 49//150
f 217//39 218//117 53//151
f 219//42 220//116 57//153
f 221//43 222//115 61//155
f 223//48 224//47 1//157
usemtl Material.033
f 2//58 162//3 161//47
f 6//68 164//6 163//2
f 165//5 12//7 166//9
f 14//64 168//12 167//8
f 169//11 20//13 170//15
f 22//60 172//18 171//14
f 26//75 174//21 173//17
f 175//20 32//22 176//24
f 34//72 178//27 177//23
f 38//89 180//30 179//26
f 42//69 182//33 181//29
f 183//32 48//34 184//36
f 50//66 186//39 185//35
f 54//82 188//42 187//38
f 58//62 190//43 189//41
f 10//83 70//104 12//7
f 191//45 64//46 192//48
f 48//34 87//86 88//112
f 4//1 66//57 65//96
f 38//89 84//70 40//28
f 32//22 79//55 80//73
f 22//60 76//76 24//16
f 58//62 94//78 60//158
f 14//64 72//107 16//10
f 52//37 89//65 90//52
f 6//68 68//84 8//4
f 42//69 86//109 44//31
f 34//72 82//101 36//25
f 26//75 78//92 28//19
f 64//46 95//79 96//102
f 20//13 73//80 74//111
f 54//82 92//94 56//40
f 77//77 110//169 78//92
f 91//54 124//163 92//94
f 66//57 97//160 65//96
f 79//55 112//168 80//73
f 93//61 126//162 94//78
f 67//67 100//174 68//84
f 81//74 114//167 82//101
f 95//79 128//161 96//102
f 69//85 102//173 70//104
f 83//88 116//166 84//70
f 71//63 104//172 72//107
f 85//71 118//165 86//109
f 73//80 106//171 74//111
f 87//86 120//164 88//112
f 75//59 108//170 76//76
f 89//65 122//159 90//52
f 222//115 160//48 223//48
f 220//116 158//43 221//43
f 218//117 156//42 219//42
f 216//35 154//39 217//39
f 151//32 215//36 214//32
f 149//29 213//33 212//29
f 147//26 211//119 210//120
f 208//23 146//27 209//27
f 143//20 207//24 206//20
f 141//122 205//121 204//123
f 139//14 203//18 202//14
f 200//11 138//15 201//15
f 135//8 199//12 198//8
f 133//5 197//9 196//125
f 131//2 195//124 194//126
f 129//47 193//3 224//47
f 159//115 192//48 160//48
f 189//41 158//43 157//127
f 187//38 156//42 155//117
f 185//35 154//39 153//35
f 151//32 184//36 152//36
f 181//29 150//118 149//29
f 179//26 148//119 147//26
f 177//23 146//27 145//23
f 143//20 176//24 144//24
f 173//17 142//121 141//122
f 171//14 140//128 139//14
f 137//11 170//15 138//15
f 167//8 136//12 135//8
f 165//5 134//9 133//5
f 163//2 132//124 131//2
f 161//47 130//3 129//47
f 1//157 193//3 3//130
f 194//126 7//132 5//129
f 196//125 11//134 9//131
f 198//8 15//136 13//133
f 200//11 19//138 17//135
f 202//14 23//140 21//137
f 204//123 27//142 25//139
f 206//20 31//49 29//141
f 208//23 35//145 33//143
f 210//120 39//147 37//144
f 212//29 43//149 41//146
f 214//32 47//50 45//148
f 216//35 51//152 49//150
f 218//117 55//154 53//151
f 220//116 59//156 57//153
f 222//115 63//51 61//155
f 2//58 4//1 162//3
f 6//68 8//4 164//6
f 165//5 10//83 12//7
f 14//64 16//10 168//12
f 169//11 18//81 20//13
f 22//60 24//16 172//18
f 26//75 28//19 174//21
f 175//20 30//56 32//22
f 34//72 36//25 178//27
f 38//89 40//28 180//30
f 42//69 44//31 182//33
f 183//32 46//87 48//34
f 50//66 52//37 186//39
f 54//82 56//40 188//42
f 58//62 60//158 190//43
f 10//83 69//85 70//104
f 191//45 62//44 64//46
f 48//34 46//87 87//86
f 4//1 2//58 66//57
f 38//89 83//88 84//70
f 32//22 30//56 79//55
f 22//60 75//59 76//76
f 58//62 93//61 94//78
f 14//64 71//63 72//107
f 52//37 50//66 89//65
f 6//68 67//67 68//84
f 42//69 85//71 86//109
f 34//72 81//74 82//101
f 26//75 77//77 78//92
f 64//46 62//44 95//79
f 20//13 18//81 73//80
f 54//82 91//54 92//94
f 77//77 109//114 110//169
f 91//54 123//53 124//163
f 66//57 98//103 97//160
f 79//55 111//93 112//168
f 93//61 125//95 126//162
f 67//67 99//97 100//174
f 81//74 113//98 114//167
f 95//79 127//99 128//161
f 69//85 101//100 102//173
f 83//88 115//90 116//166
f 71//63 103//105 104//172
f 85//71 117//106 118//165
f 73//80 105//108 106//171
f 87//86 119//110 120//164
f 75//59 107//91 108//170
f 89//65 121//113 122//159
f 222//115 159//115 160//48
f 220//116 157//127 158//43
f 218//117 155//117 156//42
f 216//35 153//35 154//39
f 151//32 152//36 215//36
f 149//29 150//118 213//33
f 147//26 148//119 211//119
f 208//23 145//23 146//27
f 143//20 144//24 207//24
f 141//122 142//121 205//121
f 139//14 140//128 203//18
f 200//11 137//11 138//15
f 135//8 136//12 199//12
f 133//5 134//9 197//9
f 131//2 132//124 195//124
f 129//47 130//3 193//3
f 159//115 191//45 192//48
f 189//41 190//43 158//43
f 187//38 188//42 156//42
f 185//35 186//39 154//39
f 151//32 183//32 184//36
f 181//29 182//33 150//118
f 179//26 180//30 148//119
f 177//23 178//27 146//27
f 143//20 175//20 176//24
f 173//17 174//21 142//121
f 171//14 172//18 140//128
f 137//11 169//11 170//15
f 167//8 168//12 136//12
f 165//5 166//9 134//9
f 163//2 164//6 132//124
f 161//47 162//3 130//3
f 1//157 224//47 193//3
f 194//126 195//124 7//132
f 196//125 197//9 11//134
f 198//8 199//12 15//136
f 200//11 201//15 19//138
f 202//14 203//18 23//140
f 204//123 205//121 27//142
f 206//20 207//24 31//49
f 208//23 209//27 35//145
f 210//120 211//119 39//147
f 212//29 213//33 43//149
f 214//32 215//36 47//50
f 216//35 217//39 51//152
f 218//117 219//42 55//154
f 220//116 221//43 59//156
f 222//115 223//48 63//51
