# Blender v3.1.2 OBJ File: 'fnaf 1 map without ceiling.blend'
# www.blender.org
mtllib kertas.mtl
o celebrate
v -80.131004 2.434811 7.155009
v -80.131004 2.434811 13.410699
v -80.131004 10.462326 7.155009
v -80.131004 10.462326 13.410699
v -80.567894 4.049587 21.168165
v -80.567894 4.049587 23.879185
v -80.567894 6.483658 21.168165
v -80.567894 6.483658 23.879185
v -80.667191 6.403157 22.716885
v -80.667191 6.403157 25.427904
v -80.667191 8.837227 22.716885
v -80.667191 8.837227 25.427904
v -80.779236 8.153552 24.470486
v -80.779236 8.153552 27.181505
v -80.779236 10.587623 24.470486
v -80.779236 10.587623 27.181505
v -80.779236 2.710531 24.520981
v -80.779236 2.710531 27.232000
v -80.779236 5.144601 24.520981
v -80.779236 5.144601 27.232000
v -80.834015 4.780219 25.722507
v -80.834015 4.780219 28.433527
v -80.834015 7.214289 25.722507
v -80.834015 7.214289 28.433527
v -80.855667 6.581182 27.528057
v -80.855667 6.581182 30.239079
v -80.855667 9.015252 27.528057
v -80.855659 9.015252 30.239077
vt 1.000000 0.000000
vt 0.000000 1.000000
vt 0.000000 0.000000
vt 1.000000 1.000000
vt 1.000000 0.000000
vt 0.000000 1.000000
vt 0.000000 0.000000
vt 1.000000 1.000000
vt 1.000000 0.000000
vt 0.000000 1.000000
vt 0.000000 0.000000
vt 1.000000 1.000000
vt 1.000000 0.000000
vt 0.000000 1.000000
vt 0.000000 0.000000
vt 1.000000 1.000000
vt 1.000000 0.000000
vt 0.000000 1.000000
vt 0.000000 0.000000
vt 1.000000 1.000000
vt 1.000000 0.000000
vt 0.000000 1.000000
vt 0.000000 0.000000
vt 1.000000 1.000000
vt 1.000000 0.000000
vt 0.000000 1.000000
vt 0.000000 0.000000
vt 1.000000 1.000000
vn -1.0000 0.0000 0.0000
usemtl celebrate
s off
f 2/1/1 3/2/1 1/3/1
f 2/1/1 4/4/1 3/2/1
usemtl poster1
f 6/5/1 7/6/1 5/7/1
f 6/5/1 8/8/1 7/6/1
usemtl poster2
f 10/9/1 11/10/1 9/11/1
f 10/9/1 12/12/1 11/10/1
usemtl poster6
f 14/13/1 15/14/1 13/15/1
f 14/13/1 16/16/1 15/14/1
usemtl poster3
f 18/17/1 19/18/1 17/19/1
f 18/17/1 20/20/1 19/18/1
usemtl poster4
f 22/21/1 23/22/1 21/23/1
f 22/21/1 24/24/1 23/22/1
usemtl poster5
f 26/25/1 27/26/1 25/27/1
f 26/25/1 28/28/1 27/26/1
