# Blender v3.0.0 OBJ File: 'Freddy-Fazbear.blend'
# www.blender.org
mtllib betis_kanan.mtl
o Cylinder.014_Cylinder.017
v 5.705296 -7.498825 -1.298553
v 5.686327 -6.980794 -1.210264
v 5.492465 -7.498825 -1.258768
v 5.505389 -6.980794 -1.176441
v 5.308378 -7.498825 -1.144786
v 5.348889 -6.980794 -1.079540
v 5.177897 -7.498825 -0.972002
v 5.237961 -6.980794 -0.932648
v 5.118645 -7.498825 -0.763750
v 5.187588 -6.980794 -0.755604
v 5.138622 -7.498825 -0.548156
v 5.204572 -6.980794 -0.572318
v 5.235132 -7.498825 -0.354338
v 5.286619 -6.980794 -0.407544
v 5.395141 -7.498825 -0.208471
v 5.422649 -6.980794 -0.283536
v 5.597037 -7.498825 -0.130256
v 5.594291 -6.980794 -0.217042
v 5.813554 -7.498825 -0.130256
v 5.778362 -6.980794 -0.217042
v 6.015450 -7.498825 -0.208471
v 5.950003 -6.980794 -0.283536
v 6.175459 -7.498825 -0.354338
v 6.086033 -6.980794 -0.407544
v 6.271969 -7.498825 -0.548156
v 6.168081 -6.980794 -0.572318
v 6.291947 -7.498825 -0.763750
v 6.185065 -6.980794 -0.755604
v 6.232694 -7.498825 -0.972002
v 6.134692 -6.980794 -0.932648
v 6.102213 -7.498825 -1.144787
v 6.023764 -6.980794 -1.079540
v 5.918126 -7.498825 -1.258768
v 5.867263 -6.980794 -1.176441
v 5.731642 -7.933540 -1.318703
v 5.511532 -7.933540 -1.277557
v 5.321150 -7.933540 -1.159678
v 5.186206 -7.933540 -0.980983
v 5.124927 -7.933540 -0.765609
v 5.145588 -7.933540 -0.542642
v 5.245399 -7.933540 -0.342195
v 5.410880 -7.933540 -0.191339
v 5.619681 -7.933540 -0.110449
v 5.843603 -7.933540 -0.110449
v 6.052405 -7.933540 -0.191339
v 6.217885 -7.933540 -0.342195
v 6.317696 -7.933540 -0.542642
v 6.338357 -7.933540 -0.765609
v 6.277078 -7.933540 -0.980984
v 6.142134 -7.933540 -1.159678
v 5.951751 -7.933540 -1.277558
v 5.731642 -8.352448 -1.066814
v 5.602525 -8.352448 -1.042678
v 5.490846 -8.352448 -0.973529
v 5.411688 -8.352448 -0.868707
v 5.375741 -8.352448 -0.742368
v 5.387861 -8.352448 -0.611575
v 5.446411 -8.352448 -0.493992
v 5.543482 -8.352448 -0.405500
v 5.665966 -8.352448 -0.358050
v 5.797319 -8.352448 -0.358050
v 5.919802 -8.352448 -0.405500
v 6.016873 -8.352448 -0.493992
v 6.075423 -8.352448 -0.611575
v 6.087543 -8.352448 -0.742368
v 6.051596 -8.352448 -0.868707
v 5.972438 -8.352448 -0.973529
v 5.860759 -8.352448 -1.042678
v 5.926414 -8.142995 -1.212156
v 6.094882 -8.142995 -1.107845
v 5.830716 -8.142995 -0.179393
v 5.632569 -8.142995 -0.179393
v 5.368401 -8.142995 -1.107845
v 5.536869 -8.142995 -1.212156
v 5.731642 -8.142995 -1.248565
v 6.015482 -8.142995 -0.250972
v 5.248991 -8.142995 -0.949720
v 6.161914 -8.142995 -0.384462
v 5.194766 -8.142995 -0.759138
v 6.250236 -8.142995 -0.561836
v 5.213048 -8.142995 -0.561836
v 6.268518 -8.142995 -0.759138
v 5.301370 -8.142995 -0.384462
v 6.214293 -8.142995 -0.949721
v 5.447803 -8.142995 -0.250972
v 5.695811 -7.239809 -1.268690
v 5.493768 -7.239809 -1.230922
v 5.319013 -7.239809 -1.122717
v 5.195145 -7.239809 -0.958691
v 5.138896 -7.239809 -0.760995
v 5.157861 -7.239809 -0.556329
v 5.249479 -7.239809 -0.372335
v 5.401377 -7.239809 -0.233861
v 5.593040 -7.239809 -0.159611
v 5.798583 -7.239809 -0.159611
v 5.990245 -7.239809 -0.233861
v 6.142143 -7.239809 -0.372334
v 6.233761 -7.239809 -0.556329
v 6.252727 -7.239809 -0.760995
v 6.196477 -7.239809 -0.958691
v 6.072609 -7.239809 -1.122718
v 5.897853 -7.239809 -1.230922
v 5.686327 -6.980793 -1.002850
v 5.580316 -6.980793 -0.983033
v 5.488623 -6.980793 -0.926259
v 5.423631 -6.980793 -0.840196
v 5.394117 -6.980793 -0.736466
v 5.404068 -6.980793 -0.629079
v 5.452139 -6.980793 -0.532539
v 5.531839 -6.980793 -0.459883
v 5.632403 -6.980793 -0.420925
v 5.740250 -6.980793 -0.420925
v 5.840814 -6.980793 -0.459883
v 5.920513 -6.980793 -0.532539
v 5.968585 -6.980793 -0.629079
v 5.978535 -6.980793 -0.736466
v 5.949022 -6.980793 -0.840196
v 5.884029 -6.980793 -0.926259
v 5.792336 -6.980793 -0.983033
v 5.686327 -7.492164 -1.002850
v 5.580316 -7.492164 -0.983033
v 5.488623 -7.492164 -0.926259
v 5.423631 -7.492164 -0.840196
v 5.394117 -7.492164 -0.736466
v 5.404068 -7.492164 -0.629079
v 5.452139 -7.492164 -0.532539
v 5.531839 -7.492164 -0.459883
v 5.632403 -7.492164 -0.420925
v 5.740250 -7.492164 -0.420925
v 5.840814 -7.492164 -0.459883
v 5.920513 -7.492164 -0.532539
v 5.968585 -7.492164 -0.629079
v 5.978535 -7.492164 -0.736466
v 5.949022 -7.492164 -0.840196
v 5.884029 -7.492164 -0.926259
v 5.792336 -7.492164 -0.983033
v 5.138896 -7.239809 -0.760995
v 5.118645 -7.498825 -0.763750
v 6.252727 -7.239809 -0.760995
v 6.291947 -7.498825 -0.763750
v 6.338357 -7.933540 -0.765609
v 5.124927 -7.933540 -0.765609
v 5.194766 -8.142995 -0.759138
v 6.268518 -8.142995 -0.759138
v 5.187588 -6.980794 -0.755604
v 6.185065 -6.980794 -0.755604
v 5.394117 -6.980793 -0.736466
v 5.978535 -6.980793 -0.736466
v 5.978535 -7.492164 -0.736466
v 5.394117 -7.492164 -0.736466
vt 0.573519 0.318239
vt 0.516013 0.396028
vt 0.513180 0.318239
vt 0.625709 0.318239
vt 0.570049 0.396028
vt 0.566813 0.318239
vt 0.602904 0.396028
vt 0.615798 0.318239
vt 0.507772 0.318239
vt 0.559036 0.396028
vt 0.507772 0.318239
vt 0.451425 0.396028
vt 0.506162 0.396028
vt 0.446650 0.318239
vt 0.402216 0.396028
vt 0.646475 0.318239
vt 0.594758 0.396028
vt 0.635383 0.396028
vt 0.601111 0.318239
vt 0.543499 0.396028
vt 0.543872 0.318239
vt 0.488527 0.396028
vt 0.482488 0.318239
vt 0.437267 0.396028
vt 0.425249 0.318239
vt 0.396643 0.396028
vt 0.391701 0.318239
vt 0.451425 0.396028
vt 0.402216 0.396028
vt 0.446650 0.318239
vt 0.506162 0.396028
vt 0.566813 0.318239
vt 0.506162 0.396028
vt 0.507772 0.318239
vt 0.615799 0.318239
vt 0.559036 0.396028
vt 0.600307 0.468198
vt 0.664958 0.506197
vt 0.659886 0.451151
vt 0.452841 0.318239
vt 0.415239 0.396028
vt 0.400652 0.318239
vt 0.461977 0.396028
vt 0.622389 0.240449
vt 0.573471 0.109892
vt 0.570788 0.240449
vt 0.430567 0.571646
vt 0.444312 0.643313
vt 0.394000 0.611985
vt 0.598273 0.109892
vt 0.542678 0.240449
vt 0.602974 0.240449
vt 0.510348 0.240449
vt 0.568214 0.109892
vt 0.573908 0.240449
vt 0.442562 0.109892
vt 0.508595 0.240449
vt 0.444209 0.240449
vt 0.442562 0.109892
vt 0.386327 0.240449
vt 0.444209 0.240449
vt 0.406686 0.109892
vt 0.369936 0.240449
vt 0.417722 0.240449
vt 0.391811 0.240449
vt 0.436745 0.109892
vt 0.446787 0.240449
vt 0.509150 0.109892
vt 0.508595 0.240449
vt 0.535916 0.109892
vt 0.478017 0.240449
vt 0.508595 0.240449
vt 0.573471 0.109892
vt 0.570788 0.240449
vt 0.625071 0.109892
vt 0.628885 0.240449
vt 0.647693 0.109892
vt 0.650759 0.240449
vt 0.382700 0.109892
vt 0.386327 0.240449
vt 0.502479 0.109892
vt 0.509150 0.109892
vt 0.508595 0.240449
vt 0.469043 0.109892
vt 0.626837 0.109892
vt 0.622389 0.240449
vt 0.463920 0.592413
vt 0.399811 0.462941
vt 0.522093 0.386800
vt 0.522093 -0.015918
vt 0.472892 0.046987
vt 0.532067 0.046987
vt 0.541039 0.592413
vt 0.610959 0.611985
vt 0.560647 0.643312
vt 0.444312 0.046987
vt 0.502479 -0.015918
vt 0.502479 0.046987
vt 0.446287 -0.015918
vt 0.417712 0.046987
vt 0.598032 0.540165
vt 0.646620 0.564496
vt 0.446287 0.401051
vt 0.373981 0.394733
vt 0.417712 0.354642
vt 0.539940 -0.015918
vt 0.507218 0.046987
vt 0.564134 0.046987
vt 0.428033 -0.015918
vt 0.448295 0.046987
vt 0.395323 0.046987
vt 0.502209 -0.015918
vt 0.448295 0.046987
vt 0.507218 0.046987
vt 0.463149 -0.015918
vt 0.507218 0.046987
vt 0.428033 -0.015918
vt 0.395323 0.046987
vt 0.507218 0.046987
vt 0.539940 -0.015918
vt 0.564134 0.046987
vt 0.587662 0.427628
vt 0.587246 0.354642
vt 0.630978 0.394733
vt 0.406927 0.540165
vt 0.358339 0.564496
vt 0.558672 -0.015918
vt 0.587246 0.046987
vt 0.560647 0.046987
vt 0.630978 0.046987
vt 0.509150 0.109892
vt 0.382700 0.109892
vt 0.509150 0.109892
vt 0.357266 0.109892
vt 0.611357 0.046987
vt 0.626836 0.109892
vt 0.610959 0.046987
vt 0.394000 0.046987
vt 0.379888 0.109892
vt 0.507772 0.318239
vt 0.379886 0.318239
vt 0.391701 0.318239
vt 0.469876 0.417384
vt 0.488527 0.344452
vt 0.437267 0.364422
vt 0.415239 0.603484
vt 0.437560 0.531602
vt 0.382111 0.559368
vt 0.594465 0.531602
vt 0.616786 0.603484
vt 0.649914 0.559368
vt 0.532117 0.405683
vt 0.594758 0.364422
vt 0.543499 0.344452
vt 0.428746 0.500449
vt 0.372140 0.451151
vt 0.367067 0.506197
vt 0.547672 0.574500
vt 0.516013 0.642744
vt 0.570049 0.632586
vt 0.585951 0.439204
vt 0.635383 0.401665
vt 0.396643 0.401665
vt 0.461977 0.632586
vt 0.456970 0.557450
vt 0.603279 0.500449
vt 0.664958 0.506197
vt 0.499909 0.405683
vt 0.367067 0.506197
vt 0.575056 0.557450
vt 0.562149 0.417384
vt 0.431718 0.468198
vt 0.516013 0.580452
vt 0.500447 0.242449
vt 0.468377 0.396028
vt 0.500447 0.396028
vt 0.439545 0.242449
vt 0.468377 0.396028
vt 0.439545 0.396028
vt 0.531425 0.242449
vt 0.500447 0.396028
vt 0.531425 0.396028
vt 0.562149 0.242449
vt 0.585951 0.396028
vt 0.562149 0.396028
vt 0.557127 0.242449
vt 0.557127 0.396028
vt 0.532117 0.242449
vt 0.532117 0.396028
vt 0.547672 0.242449
vt 0.516013 0.396028
vt 0.547672 0.396028
vt 0.484353 0.242449
vt 0.456970 0.396028
vt 0.484353 0.396028
vt 0.499909 0.242449
vt 0.499909 0.396028
vt 0.575056 0.242449
vt 0.575056 0.396028
vt 0.516013 0.242449
vt 0.469876 0.242449
vt 0.469876 0.396028
vt 0.531425 0.242449
vt 0.557127 0.396028
vt 0.531425 0.396028
vt 0.446074 0.242449
vt 0.446074 0.396028
vt 0.500447 0.242449
vt 0.500447 0.396028
vt 0.468377 0.242449
vt 0.439545 0.396028
vt 0.468377 0.242449
vt 0.500447 0.396028
vt 0.616786 0.396028
vt 0.506162 0.396028
vt 0.602904 0.396028
vt 0.603279 0.500449
vt 0.502479 0.599662
vt 0.574392 0.571646
vt 0.396192 0.502222
vt 0.417297 0.427628
vt 0.482865 0.386800
vt 0.558672 0.401051
vt 0.605148 0.462941
vt 0.608767 0.502222
vt 0.482865 -0.015918
vt 0.463920 -0.015918
vt 0.463149 -0.015918
vt 0.502209 -0.015918
vt 0.541039 -0.015918
vt 0.611357 0.046987
vt 0.373981 0.046987
vt 0.446074 0.439204
vt 0.484353 0.574500
vt 0.428746 0.500449
vt 0.500447 0.242449
vt 0.585951 0.242449
vt 0.456970 0.242449
vt 0.557127 0.242449
vt 0.439545 0.242449
vt 0.500447 0.242449
vn -0.3572 0.1539 -0.9213
vn -0.0029 0.7464 -0.6654
vn -0.0002 0.1665 -0.9860
vn -0.6669 0.1429 -0.7313
vn -0.2446 0.7422 -0.6240
vn -0.8870 0.1351 -0.4415
vn -0.4559 0.7385 -0.4968
vn -0.9536 0.1301 -0.2713
vn -0.6068 0.7358 -0.3007
vn -0.9875 0.1286 0.0915
vn -0.6524 0.7350 0.1848
vn -0.6827 0.7280 0.0632
vn -0.9533 0.1328 0.2712
vn -0.5405 0.7370 0.4059
vn -0.7904 0.1385 0.5967
vn -0.3561 0.7402 0.5703
vn -0.5208 0.1481 0.8407
vn -0.1255 0.7443 0.6559
vn -0.1816 0.1601 0.9702
vn 0.1190 0.7486 0.6522
vn 0.1807 0.1729 0.9682
vn 0.3446 0.7526 0.5611
vn 0.5171 0.1847 0.8357
vn 0.5215 0.7557 0.3960
vn 0.7827 0.1940 0.5913
vn 0.6275 0.7576 0.1793
vn 0.9424 0.1997 0.2682
vn 0.6550 0.7532 0.0607
vn 0.8775 0.1974 -0.4371
vn 0.6343 0.7517 -0.1805
vn 0.9430 0.1968 -0.2683
vn 0.6613 0.1898 -0.7257
vn 0.5845 0.7569 -0.2924
vn 0.6352 0.7509 -0.1807
vn 0.3551 0.1790 -0.9175
vn 0.4407 0.7543 -0.4866
vn 0.2362 0.7507 -0.6170
vn -0.6737 0.0476 -0.7374
vn -0.8826 -0.1618 -0.4413
vn -0.8948 0.0370 -0.4448
vn 0.3057 -0.8910 -0.3354
vn 0.3156 -0.4863 -0.8147
vn 0.5886 -0.4863 -0.6457
vn -0.5178 -0.1507 0.8421
vn -0.1848 0.0712 0.9802
vn -0.5267 0.0547 0.8483
vn -0.0015 0.0800 -0.9968
vn -0.3542 -0.1457 -0.9237
vn -0.3618 0.0626 -0.9301
vn 0.9566 -0.1066 0.2712
vn 0.9877 0.1265 0.0915
vn 0.9540 0.1261 0.2719
vn -0.9485 -0.1638 0.2709
vn -0.7978 0.0416 0.6014
vn -0.9614 0.0338 0.2731
vn 0.5253 -0.1193 0.8425
vn 0.7918 0.1183 0.5992
vn 0.5224 0.1053 0.8462
vn 0.6685 0.1123 -0.7351
vn 0.3616 -0.1242 -0.9240
vn 0.3581 0.0974 -0.9286
vn -0.9492 -0.1613 -0.2701
vn -0.9613 0.0325 -0.2735
vn -0.1784 -0.1404 0.9739
vn 0.1815 0.0888 0.9793
vn 0.9543 0.1248 -0.2715
vn 0.8906 -0.1085 -0.4417
vn 0.8880 0.1230 -0.4430
vn -0.6635 -0.1551 -0.7319
vn -0.7865 -0.1588 0.5967
vn 0.7943 -0.1114 0.5972
vn 0.0036 -0.1349 -0.9908
vn -0.9824 -0.1629 0.0910
vn -0.9952 0.0306 0.0922
vn 0.1857 -0.1294 0.9740
vn 0.6712 -0.1150 -0.7323
vn 0.1639 -0.8910 -0.4232
vn 0.4365 -0.8910 0.1242
vn -0.0834 -0.8910 0.4461
vn 0.1605 -0.4863 0.8589
vn -0.1605 -0.4863 0.8589
vn -0.1639 -0.8910 -0.4232
vn -0.5886 -0.4863 -0.6457
vn -0.3156 -0.4863 -0.8147
vn 0.0000 -0.8910 -0.4538
vn 0.0000 -0.4863 -0.8737
vn 0.2389 -0.8910 0.3858
vn 0.4599 -0.4863 0.7429
vn -0.4063 -0.8910 -0.2023
vn -0.7821 -0.4863 -0.3894
vn 0.6973 -0.4863 0.5265
vn -0.8437 -0.4800 -0.2401
vn 0.3622 -0.8910 0.2735
vn 0.8404 -0.4863 0.2391
vn -0.4519 -0.8910 -0.0419
vn -0.8404 -0.4863 0.2391
vn -0.8735 -0.4800 0.0809
vn 0.8735 -0.4800 0.0809
vn -0.3622 -0.8910 0.2735
vn -0.6973 -0.4863 0.5265
vn 0.8437 -0.4800 -0.2401
vn 0.4063 -0.8910 -0.2023
vn 0.7821 -0.4863 -0.3894
vn -0.4599 -0.4863 0.7429
vn -0.2389 -0.8911 0.3858
vn 0.9565 -0.1047 -0.2721
vn 0.9904 -0.1029 0.0918
vn 0.9760 0.1982 0.0904
vn -0.3476 0.7509 -0.5615
vn -0.5912 0.7509 0.2944
vn 0.5912 0.7509 0.2944
vn 0.1213 0.7509 -0.6492
vn -0.6639 0.7452 -0.0615
vn 0.2386 0.7509 0.6158
vn 0.5270 0.7509 -0.3980
vn -0.4449 0.7509 0.4881
vn 0.6413 0.7452 0.1825
vn -0.6578 0.7295 -0.1871
vn -0.1213 0.7509 -0.6492
vn 0.4449 0.7509 0.4881
vn 0.3476 0.7509 -0.5615
vn -0.6352 0.7509 -0.1807
vn 0.0000 0.7509 0.6604
vn -0.9957 0.0000 -0.0923
vn 0.7980 0.0000 -0.6026
vn -0.8951 0.0000 0.4457
vn -0.6413 0.7452 0.1825
vn 0.5264 0.0000 -0.8502
vn -0.6737 0.0000 0.7390
vn 0.1837 0.0000 -0.9830
vn 0.3612 0.0000 0.9325
vn -0.3612 0.0000 0.9325
vn -0.2386 0.7509 0.6158
vn -0.1837 0.0000 -0.9830
vn 0.6737 0.0000 0.7390
vn 0.0000 0.0000 1.0000
vn -0.5264 0.0000 -0.8502
vn 0.8951 0.0000 0.4457
vn -0.7980 0.0000 -0.6026
vn -0.5270 0.7509 -0.3980
vn 0.9618 0.0000 0.2737
vn -0.9618 0.0000 -0.2737
vn 0.9618 0.0000 -0.2737
vn 0.6639 0.7452 -0.0615
vn -0.3057 -0.8910 -0.3354
vn 0.4519 -0.8910 -0.0419
vn 0.0834 -0.8910 0.4461
vn -0.4365 -0.8910 0.1242
vn -0.9618 0.0000 0.2737
vn 0.9957 0.0000 -0.0923
usemtl Material.026
s 1
f 87/1/1 2/2/2 86/3/3
f 88/4/4 4/5/5 87/1/1
f 89/6/6 6/7/7 88/8/4
f 90/9/8 8/10/9 89/6/6
f 137/11/10 12/12/11 10/13/12
f 91/14/13 14/15/14 12/12/11
f 92/16/15 16/17/16 14/18/14
f 93/19/17 18/20/18 16/17/16
f 94/21/19 20/22/20 18/20/18
f 95/23/21 22/24/22 20/22/20
f 96/25/23 24/26/24 22/24/22
f 97/27/25 26/28/26 24/29/24
f 98/30/27 146/31/28 26/28/26
f 100/32/29 28/33/30 139/34/31
f 101/35/32 30/36/33 100/32/29
f 108/37/34 10/38/12 12/39/11
f 102/40/35 32/41/36 101/42/32
f 86/3/3 34/43/37 102/40/35
f 5/44/38 38/45/39 7/46/40
f 67/47/41 69/48/42 70/49/43
f 42/50/44 17/51/45 15/52/46
f 1/53/47 36/54/48 3/55/49
f 47/56/50 140/57/51 25/58/52
f 40/59/53 13/60/54 11/61/55
f 45/62/56 23/63/57 21/64/58
f 31/65/59 51/66/60 33/67/61
f 7/46/40 142/68/62 138/69/63
f 43/70/64 19/71/65 17/51/45
f 27/72/66 49/73/67 29/74/68
f 3/55/49 37/75/69 5/76/38
f 41/77/70 15/52/46 13/78/54
f 46/79/71 25/58/52 23/80/57
f 33/67/61 35/81/72 1/53/47
f 39/82/73 11/61/55 9/83/74
f 44/84/75 21/64/58 19/71/65
f 29/74/68 50/85/76 31/86/59
f 68/87/77 64/88/78 60/89/79
f 60/90/79 71/91/80 72/92/81
f 53/93/82 73/94/83 74/95/84
f 69/96/42 52/97/85 75/98/86
f 71/91/80 62/99/87 76/100/88
f 73/94/83 55/101/89 77/102/90
f 62/103/87 78/104/91 76/105/88
f 55/106/89 143/107/92 77/108/90
f 63/109/93 80/110/94 78/111/91
f 56/112/95 81/113/96 79/114/97
f 64/115/78 144/116/98 80/110/94
f 81/113/96 58/117/99 83/118/100
f 82/119/101 66/120/102 84/121/103
f 58/122/99 85/123/104 83/124/100
f 66/125/102 70/49/43 84/126/103
f 59/127/105 72/92/81 85/128/104
f 52/97/85 74/129/84 75/98/86
f 75/98/86 36/54/48 35/81/72
f 85/128/104 43/70/64 42/50/44
f 84/121/103 50/85/76 49/73/67
f 83/130/100 42/50/44 41/77/70
f 82/119/101 49/73/67 48/131/106
f 40/59/53 83/118/100 41/132/70
f 47/56/50 144/116/98 141/133/107
f 79/114/97 40/59/53 39/82/73
f 46/79/71 80/110/94 47/56/50
f 77/108/90 142/68/62 38/45/39
f 76/100/88 46/134/71 45/62/56
f 73/135/83 38/45/39 37/136/69
f 44/84/75 76/100/88 45/62/56
f 51/66/60 75/98/86 35/81/72
f 36/54/48 73/137/83 37/75/69
f 72/92/81 44/84/75 43/70/64
f 70/138/43 51/66/60 50/139/76
f 1/53/47 102/40/35 33/67/61
f 33/67/61 101/42/32 31/65/59
f 31/86/59 100/32/29 29/74/68
f 29/74/68 139/34/31 27/72/66
f 25/58/52 99/140/108 98/30/27
f 23/80/57 98/30/27 97/27/25
f 21/64/58 97/141/25 96/25/23
f 19/71/65 96/25/23 95/23/21
f 17/51/45 95/23/21 94/21/19
f 15/52/46 94/21/19 93/19/17
f 13/78/54 93/19/17 92/16/15
f 11/61/55 92/142/15 91/14/13
f 9/83/74 91/14/13 137/11/10
f 138/69/63 89/6/6 7/46/40
f 7/46/40 88/8/4 5/44/38
f 5/76/38 87/1/1 3/55/49
f 3/55/49 86/3/3 1/53/47
f 113/143/109 20/144/20 22/145/22
f 32/146/36 117/147/110 30/148/33
f 106/149/111 6/150/7 8/151/9
f 111/152/112 16/153/16 18/154/18
f 148/155/113 26/156/26 146/157/28
f 104/158/114 2/159/2 4/160/5
f 109/161/115 12/39/11 14/162/14
f 24/163/24 113/143/109 22/145/22
f 34/164/37 118/165/116 32/146/36
f 147/166/117 8/151/9 145/167/118
f 112/168/119 18/154/18 20/144/20
f 117/147/110 28/169/30 30/148/33
f 105/170/120 4/160/5 6/150/7
f 110/171/121 14/162/14 16/153/16
f 115/172/122 24/163/24 26/156/26
f 103/173/123 34/164/37 2/159/2
f 149/174/124 115/175/122 148/176/113
f 126/177/125 108/178/34 109/179/115
f 134/180/126 116/181/127 117/182/110
f 127/183/128 109/184/115 110/185/121
f 135/186/129 117/182/110 118/187/116
f 128/188/130 110/185/121 111/189/112
f 121/190/131 103/191/123 104/192/114
f 136/193/132 118/194/116 119/195/133
f 129/196/134 111/189/112 112/197/119
f 122/198/135 104/192/114 105/199/120
f 120/200/136 119/195/133 103/191/123
f 130/201/137 112/197/119 113/202/109
f 123/203/138 105/204/120 106/205/111
f 131/206/139 113/202/109 114/207/140
f 150/208/141 106/205/111 147/209/117
f 132/210/142 114/211/140 115/175/122
f 125/212/143 107/213/144 108/178/34
f 87/1/1 4/5/5 2/2/2
f 88/4/4 6/214/7 4/5/5
f 89/6/6 8/10/9 6/7/7
f 90/9/8 145/215/118 8/10/9
f 137/11/10 91/14/13 12/12/11
f 91/14/13 92/142/15 14/15/14
f 92/16/15 93/19/17 16/17/16
f 93/19/17 94/21/19 18/20/18
f 94/21/19 95/23/21 20/22/20
f 95/23/21 96/25/23 22/24/22
f 96/25/23 97/141/25 24/26/24
f 97/27/25 98/30/27 26/28/26
f 98/30/27 99/140/108 146/31/28
f 100/32/29 30/36/33 28/33/30
f 101/35/32 32/216/36 30/36/33
f 108/37/34 107/217/144 10/38/12
f 102/40/35 34/43/37 32/41/36
f 86/3/3 2/2/2 34/43/37
f 5/44/38 37/136/69 38/45/39
f 67/47/41 68/87/77 69/48/42
f 42/50/44 43/70/64 17/51/45
f 1/53/47 35/81/72 36/54/48
f 47/56/50 141/133/107 140/57/51
f 40/59/53 41/132/70 13/60/54
f 45/62/56 46/134/71 23/63/57
f 31/65/59 50/139/76 51/66/60
f 7/46/40 38/45/39 142/68/62
f 43/70/64 44/84/75 19/71/65
f 27/72/66 48/131/106 49/73/67
f 3/55/49 36/54/48 37/75/69
f 41/77/70 42/50/44 15/52/46
f 46/79/71 47/56/50 25/58/52
f 33/67/61 51/66/60 35/81/72
f 39/82/73 40/59/53 11/61/55
f 44/84/75 45/62/56 21/64/58
f 29/74/68 49/73/67 50/85/76
f 53/93/82 52/218/85 54/219/145
f 52/218/85 68/87/77 54/219/145
f 68/87/77 67/47/41 66/125/102
f 66/125/102 65/220/146 68/87/77
f 65/220/146 64/88/78 68/87/77
f 64/88/78 63/221/93 60/89/79
f 63/221/93 62/103/87 60/89/79
f 62/103/87 61/222/147 60/89/79
f 60/89/79 59/223/105 58/122/99
f 58/122/99 57/224/148 60/89/79
f 57/224/148 56/225/95 60/89/79
f 56/225/95 55/101/89 54/219/145
f 56/225/95 54/219/145 60/89/79
f 54/219/145 68/87/77 60/89/79
f 60/90/79 61/226/147 71/91/80
f 53/93/82 54/219/145 73/94/83
f 69/96/42 68/227/77 52/97/85
f 71/91/80 61/226/147 62/99/87
f 73/94/83 54/219/145 55/101/89
f 62/103/87 63/221/93 78/104/91
f 55/106/89 56/112/95 143/107/92
f 63/109/93 64/115/78 80/110/94
f 56/112/95 57/228/148 81/113/96
f 64/115/78 65/229/146 144/116/98
f 81/113/96 57/228/148 58/117/99
f 82/119/101 65/229/146 66/120/102
f 58/122/99 59/223/105 85/123/104
f 66/125/102 67/47/41 70/49/43
f 59/127/105 60/90/79 72/92/81
f 52/97/85 53/230/82 74/129/84
f 75/98/86 74/129/84 36/54/48
f 85/128/104 72/92/81 43/70/64
f 84/121/103 70/231/43 50/85/76
f 83/130/100 85/128/104 42/50/44
f 82/119/101 84/121/103 49/73/67
f 40/59/53 81/113/96 83/118/100
f 47/56/50 80/110/94 144/116/98
f 79/114/97 81/113/96 40/59/53
f 46/79/71 78/111/91 80/110/94
f 77/108/90 143/107/92 142/68/62
f 76/100/88 78/232/91 46/134/71
f 73/135/83 77/108/90 38/45/39
f 44/84/75 71/91/80 76/100/88
f 51/66/60 69/96/42 75/98/86
f 36/54/48 74/129/84 73/137/83
f 72/92/81 71/91/80 44/84/75
f 70/138/43 69/96/42 51/66/60
f 1/53/47 86/3/3 102/40/35
f 33/67/61 102/40/35 101/42/32
f 31/86/59 101/35/32 100/32/29
f 29/74/68 100/32/29 139/34/31
f 25/58/52 140/57/51 99/140/108
f 23/80/57 25/58/52 98/30/27
f 21/64/58 23/63/57 97/141/25
f 19/71/65 21/64/58 96/25/23
f 17/51/45 19/71/65 95/23/21
f 15/52/46 17/51/45 94/21/19
f 13/78/54 15/52/46 93/19/17
f 11/61/55 13/60/54 92/142/15
f 9/83/74 11/61/55 91/14/13
f 138/69/63 90/9/8 89/6/6
f 7/46/40 89/6/6 88/8/4
f 5/76/38 88/4/4 87/1/1
f 3/55/49 87/1/1 86/3/3
f 113/143/109 112/168/119 20/144/20
f 32/146/36 118/165/116 117/147/110
f 106/149/111 105/170/120 6/150/7
f 111/152/112 110/171/121 16/153/16
f 148/155/113 115/172/122 26/156/26
f 104/158/114 103/173/123 2/159/2
f 109/161/115 108/37/34 12/39/11
f 24/163/24 114/233/140 113/143/109
f 34/164/37 119/234/133 118/165/116
f 147/166/117 106/149/111 8/151/9
f 112/168/119 111/152/112 18/154/18
f 117/147/110 116/235/127 28/169/30
f 105/170/120 104/158/114 4/160/5
f 110/171/121 109/161/115 14/162/14
f 115/172/122 114/233/140 24/163/24
f 103/173/123 119/234/133 34/164/37
f 149/174/124 132/210/142 115/175/122
f 126/177/125 125/212/143 108/178/34
f 134/180/126 133/236/149 116/181/127
f 127/183/128 126/237/125 109/184/115
f 135/186/129 134/180/126 117/182/110
f 128/188/130 127/183/128 110/185/121
f 121/190/131 120/200/136 103/191/123
f 136/193/132 135/238/129 118/194/116
f 129/196/134 128/188/130 111/189/112
f 122/198/135 121/190/131 104/192/114
f 120/200/136 136/193/132 119/195/133
f 130/201/137 129/196/134 112/197/119
f 123/203/138 122/239/135 105/204/120
f 131/206/139 130/201/137 113/202/109
f 150/208/141 123/203/138 106/205/111
f 132/210/142 131/240/139 114/211/140
f 125/212/143 124/241/150 107/213/144
